<svg width="37" height="37" viewBox="0 0 37 37" fill="none" xmlns="http://www.w3.org/2000/svg">
<g clip-path="url(#clip0_4_7)">
<path d="M29.2917 9.25002H26.2083C26.2083 4.99502 22.755 1.54169 18.5 1.54169C14.245 1.54169 10.7917 4.99502 10.7917 9.25002H7.70833C6.0125 9.25002 4.625 10.6375 4.625 12.3334V30.8334C4.625 32.5292 6.0125 33.9167 7.70833 33.9167H29.2917C30.9875 33.9167 32.375 32.5292 32.375 30.8334V12.3334C32.375 10.6375 30.9875 9.25002 29.2917 9.25002ZM18.5 4.62502C21.0592 4.62502 23.125 6.69085 23.125 9.25002H13.875C13.875 6.69085 15.9408 4.62502 18.5 4.62502ZM29.2917 30.8334H7.70833V12.3334H29.2917V30.8334ZM18.5 18.5C15.9408 18.5 13.875 16.4342 13.875 13.875H10.7917C10.7917 18.13 14.245 21.5834 18.5 21.5834C22.755 21.5834 26.2083 18.13 26.2083 13.875H23.125C23.125 16.4342 21.0592 18.5 18.5 18.5Z" fill="#2A2A2A"/>
</g>
<defs>
<clipPath id="clip0_4_7">
<rect width="37" height="37" fill="white"/>
</clipPath>
</defs>
</svg>
