<svg width="334" height="57" viewBox="0 0 334 57" fill="none" xmlns="http://www.w3.org/2000/svg">
<path d="M0.825 56V53.45H5.775V3.05H0.825V0.499999H15.675V3.05H10.725V24.8H26.7V3.05H21.75V0.499999H36.6V3.05H31.65V53.45H36.6V56H21.75V53.45H26.7V27.2H10.725V53.45H15.675V56H0.825ZM37.425 56V53.45H41.4L54.375 0.499999H57.375L70.35 53.45H75.15V56H57.45V53.45H65.025L60.675 35.675H48.3L44.025 53.45H49.275V56H37.425ZM54.45 10.1L48.9 33.275H60.075L54.45 10.1ZM104.25 56.75L85.125 12.05V53.45H91.425V56H77.775V53.45H82.575V3.05H77.775V0.499999H85.425L103.5 42.8V3.05H97.2V0.499999H110.85V3.05H106.05V56.75H104.25ZM115.35 56V53.45H121.65V3.05H115.35V0.499999H129.525C132.675 0.499999 135.4 1.3 137.7 2.9C140 4.45 141.9 6.55 143.4 9.2C144.9 11.85 146.025 14.825 146.775 18.125C147.525 21.425 147.9 24.8 147.9 28.25C147.9 31.7 147.525 35.075 146.775 38.375C146.025 41.675 144.9 44.65 143.4 47.3C141.9 49.95 140 52.075 137.7 53.675C135.4 55.225 132.675 56 129.525 56H115.35ZM129.525 2.9H126.9V53.6H129.525C131.725 53.6 133.725 53.075 135.525 52.025C137.375 50.975 138.85 49.45 139.95 47.45C141.05 45.4 141.6 42.925 141.6 40.025V16.475C141.6 13.525 141.05 11.05 139.95 9.05C138.85 7.05 137.375 5.525 135.525 4.475C133.725 3.425 131.725 2.9 129.525 2.9ZM187.575 56V53.45H192.075V3.05H187.575V0.499999H194.925L205.8 47.3L216.675 0.499999H225.15V3.05H220.35V53.45H225.15V56H211.2V53.45H215.25V16.55L206.1 56H203.775L194.625 16.55V53.45H199.425V56H187.575ZM224.925 56V53.45H228.9L241.875 0.499999H244.875L257.85 53.45H262.65V56H244.95V53.45H252.525L248.175 35.675H235.8L231.525 53.45H236.775V56H224.925ZM241.95 10.1L236.4 33.275H247.575L241.95 10.1ZM265.35 56V53.45H271.65V3.05H265.35V0.499999H279.525C282.675 0.499999 285.4 1.3 287.7 2.9C290 4.45 291.9 6.55 293.4 9.2C294.9 11.85 296.025 14.825 296.775 18.125C297.525 21.425 297.9 24.8 297.9 28.25C297.9 31.7 297.525 35.075 296.775 38.375C296.025 41.675 294.9 44.65 293.4 47.3C291.9 49.95 290 52.075 287.7 53.675C285.4 55.225 282.675 56 279.525 56H265.35ZM279.525 2.9H276.9V53.6H279.525C281.725 53.6 283.725 53.075 285.525 52.025C287.375 50.975 288.85 49.45 289.95 47.45C291.05 45.4 291.6 42.925 291.6 40.025V16.475C291.6 13.525 291.05 11.05 289.95 9.05C288.85 7.05 287.375 5.525 285.525 4.475C283.725 3.425 281.725 2.9 279.525 2.9ZM302.325 56V53.45H308.625V3.05H302.325V0.499999H333.15V16.55H331.05L330 8.525C329.55 4.925 327.475 3.125 323.775 3.125H313.875V24.425H323.55V14.9H325.95V36.5H323.55V26.975H313.875V53.375H324.525C328.175 53.375 330.225 51.55 330.675 47.9L331.8 38.45H333.9V56H302.325Z" fill="black"/>
</svg>
