<svg width="950" height="446" viewBox="0 0 950 446" fill="none" xmlns="http://www.w3.org/2000/svg">
<rect width="130.962" height="37.8464" transform="translate(343.539 408)" fill="#534747" fill-opacity="0.3"/>
<path d="M949.707 8.70711C950.098 8.31658 950.098 7.68342 949.707 7.29289L943.343 0.928932C942.953 0.538408 942.319 0.538408 941.929 0.928932C941.538 1.31946 941.538 1.95262 941.929 2.34315L947.586 8L941.929 13.6569C941.538 14.0474 941.538 14.6805 941.929 15.0711C942.319 15.4616 942.953 15.4616 943.343 15.0711L949.707 8.70711ZM0 9H474.5V7L0 7L0 9ZM474.5 9L949 9V7L474.5 7V9Z" fill="black"/>
</svg>
