<svg width="780" height="446" viewBox="0 0 780 446" fill="none" xmlns="http://www.w3.org/2000/svg">
<rect width="107.502" height="37.8464" transform="translate(281.998 408)" fill="#534747" fill-opacity="0.3"/>
<path d="M779.707 8.70711C780.098 8.31658 780.098 7.68342 779.707 7.29289L773.343 0.928932C772.953 0.538408 772.319 0.538408 771.929 0.928932C771.538 1.31946 771.538 1.95262 771.929 2.34315L777.586 8L771.929 13.6569C771.538 14.0474 771.538 14.6805 771.929 15.0711C772.319 15.4616 772.953 15.4616 773.343 15.0711L779.707 8.70711ZM0 9H389.5V7L0 7L0 9ZM389.5 9L779 9V7L389.5 7V9Z" fill="black"/>
</svg>
