<svg width="60" height="50" viewBox="0 0 60 50" fill="none" xmlns="http://www.w3.org/2000/svg">
<path d="M0.0150001 49V46.79H5.475V3.11H0.0150001V0.899999H15.485V3.11H10.025V46.725H19.255C22.4183 46.725 24.195 45.1433 24.585 41.98L25.56 33.79H27.38V49H0.0150001ZM47.985 49.65C46.1217 49.65 44.54 49.3033 43.24 48.61C41.9833 47.8733 40.965 47.0067 40.185 46.01C39.4483 44.97 38.885 43.93 38.495 42.89C38.105 41.85 37.8667 41.005 37.78 40.355H37.26V49H35.18V29.825H38.56V32.36C38.56 33.0967 38.6033 34.0933 38.69 35.35C38.82 36.6067 39.0367 37.9283 39.34 39.315C39.6867 40.7017 40.185 42.0233 40.835 43.28C41.485 44.4933 42.3733 45.49 43.5 46.27C44.6267 47.05 46.0567 47.44 47.79 47.44C49.87 47.44 51.56 46.8117 52.86 45.555C54.16 44.255 54.81 42.4567 54.81 40.16C54.81 38.1667 54.355 36.325 53.445 34.635C52.5783 32.945 51.43 31.3417 50 29.825C48.57 28.265 47.0533 26.7483 45.45 25.275C43.89 23.7583 42.395 22.2417 40.965 20.725C39.535 19.165 38.365 17.5183 37.455 15.785C36.5883 14.0083 36.155 12.1017 36.155 10.065C36.155 8.02833 36.61 6.295 37.52 4.865C38.43 3.39166 39.6217 2.265 41.095 1.485C42.6117 0.661664 44.28 0.249996 46.1 0.249996C48.1367 0.249996 49.7833 0.68333 51.04 1.55C52.2967 2.41666 53.2717 3.41333 53.965 4.54C54.6583 5.66666 55.135 6.64166 55.395 7.465H55.915V0.899999H57.995V17.02H54.615V14.94C54.615 12.6 54.2683 10.4767 53.575 8.57C52.925 6.66333 51.9717 5.16833 50.715 4.085C49.5017 2.95833 48.0067 2.395 46.23 2.395C44.4533 2.395 43.045 2.98 42.005 4.15C41.0083 5.32 40.51 6.79333 40.51 8.57C40.51 10.3033 40.9433 11.9717 41.81 13.575C42.72 15.135 43.89 16.6733 45.32 18.19C46.75 19.6633 48.245 21.1583 49.805 22.675C51.4083 24.1917 52.925 25.7733 54.355 27.42C55.785 29.0233 56.9333 30.7567 57.8 32.62C58.71 34.44 59.165 36.4333 59.165 38.6C59.165 40.8533 58.645 42.8033 57.605 44.45C56.6083 46.0967 55.265 47.375 53.575 48.285C51.885 49.195 50.0217 49.65 47.985 49.65Z" fill="black"/>
</svg>
