<svg width="962" height="108" viewBox="0 0 962 108" fill="none" xmlns="http://www.w3.org/2000/svg">
<path d="M28.35 42.27C26.61 42.27 25.275 41.94 24.345 41.28C23.415 40.59 22.545 39.735 21.735 38.715L12.42 27.015C12.03 26.535 11.73 26.205 11.52 26.025C11.31 25.845 11.085 25.755 10.845 25.755C10.605 25.755 10.395 25.845 10.215 26.025C10.035 26.175 9.945 26.52 9.945 27.06V37.5C9.945 38.52 10.05 39.27 10.26 39.75C10.5 40.23 10.92 40.545 11.52 40.695C12.12 40.845 13.005 40.935 14.175 40.965V42H2.97V40.965C3.78 40.935 4.41 40.845 4.86 40.695C5.34 40.545 5.67 40.23 5.85 39.75C6.03 39.27 6.12 38.52 6.12 37.5V16.575C6.12 15.525 6 14.775 5.76 14.325C5.55 13.845 5.145 13.53 4.545 13.38C3.945 13.23 3.045 13.14 1.845 13.11V12.075H13.095V13.11C12.285 13.14 11.655 13.23 11.205 13.38C10.755 13.53 10.425 13.845 10.215 14.325C10.035 14.775 9.945 15.525 9.945 16.575V24.09H10.035L19.665 16.26C20.385 15.66 20.85 15.21 21.06 14.91C21.27 14.61 21.375 14.34 21.375 14.1C21.375 13.8 21.21 13.575 20.88 13.425C20.55 13.245 19.92 13.14 18.99 13.11V12.075H28.44V13.11C27.54 13.17 26.73 13.395 26.01 13.785C25.29 14.175 24.465 14.745 23.535 15.495L14.985 22.47C14.505 22.83 14.505 23.325 14.985 23.955L25.515 37.365C26.325 38.385 26.985 39.15 27.495 39.66C28.035 40.17 28.545 40.515 29.025 40.695C29.535 40.875 30.12 40.965 30.78 40.965V42C29.97 42.18 29.16 42.27 28.35 42.27ZM55.4164 37.5C55.7764 38.55 56.1214 39.315 56.4514 39.795C56.7814 40.245 57.1714 40.545 57.6214 40.695C58.1014 40.815 58.7314 40.905 59.5114 40.965V42H48.7564V40.965C49.7764 40.905 50.5264 40.8 51.0064 40.65C51.5164 40.5 51.8014 40.185 51.8614 39.705C51.9214 39.225 51.7714 38.49 51.4114 37.5L48.8464 29.76C48.6964 29.91 48.4714 30.015 48.1714 30.075C47.8714 30.105 47.5564 30.12 47.2264 30.12H41.3314C40.6714 30.12 40.1764 30.195 39.8464 30.345C39.5164 30.495 39.2314 30.9 38.9914 31.56L36.8764 37.5C36.4864 38.64 36.4864 39.495 36.8764 40.065C37.2964 40.605 38.4664 40.905 40.3864 40.965V42H31.0714V40.965C32.0314 40.905 32.7814 40.605 33.3214 40.065C33.8914 39.495 34.3864 38.64 34.8064 37.5L42.7714 15.63C43.0714 14.85 43.3564 14.085 43.6264 13.335C43.8964 12.585 44.1364 11.82 44.3464 11.04H46.5514C46.7614 11.82 46.9864 12.585 47.2264 13.335C47.4964 14.085 47.7814 14.85 48.0814 15.63L55.4164 37.5ZM47.3164 28.5C47.7064 28.5 47.9764 28.455 48.1264 28.365C48.2764 28.245 48.2764 28.005 48.1264 27.645L44.4364 16.71H44.3464L40.0264 28.635C40.1764 28.575 40.3564 28.545 40.5664 28.545C40.7764 28.515 41.0164 28.5 41.2864 28.5H47.3164ZM61.3909 12.075H85.6459V19.095H84.6109C84.5509 18.045 84.3859 17.115 84.1159 16.305C83.8459 15.495 83.3359 14.865 82.5859 14.415C81.8359 13.935 80.6959 13.695 79.1659 13.695H75.4309V37.5C75.4309 38.52 75.5359 39.27 75.7459 39.75C75.9859 40.23 76.4059 40.545 77.0059 40.695C77.6359 40.845 78.5359 40.935 79.7059 40.965V42H68.4559V40.965C69.2659 40.935 69.8959 40.845 70.3459 40.695C70.8259 40.545 71.1559 40.23 71.3359 39.75C71.5159 39.27 71.6059 38.52 71.6059 37.5V13.695H67.8259C66.3259 13.695 65.2009 13.935 64.4509 14.415C63.7009 14.865 63.1909 15.495 62.9209 16.305C62.6509 17.115 62.4859 18.045 62.4259 19.095H61.3909V12.075ZM111.93 37.5C112.29 38.55 112.635 39.315 112.965 39.795C113.295 40.245 113.685 40.545 114.135 40.695C114.615 40.815 115.245 40.905 116.025 40.965V42H105.27V40.965C106.29 40.905 107.04 40.8 107.52 40.65C108.03 40.5 108.315 40.185 108.375 39.705C108.435 39.225 108.285 38.49 107.925 37.5L105.36 29.76C105.21 29.91 104.985 30.015 104.685 30.075C104.385 30.105 104.07 30.12 103.74 30.12H97.8451C97.1851 30.12 96.6901 30.195 96.3601 30.345C96.0301 30.495 95.7451 30.9 95.5051 31.56L93.3901 37.5C93.0001 38.64 93.0001 39.495 93.3901 40.065C93.8101 40.605 94.9801 40.905 96.9001 40.965V42H87.5851V40.965C88.5451 40.905 89.2951 40.605 89.8351 40.065C90.4051 39.495 90.9001 38.64 91.3201 37.5L99.2851 15.63C99.5851 14.85 99.8701 14.085 100.14 13.335C100.41 12.585 100.65 11.82 100.86 11.04H103.065C103.275 11.82 103.5 12.585 103.74 13.335C104.01 14.085 104.295 14.85 104.595 15.63L111.93 37.5ZM103.83 28.5C104.22 28.5 104.49 28.455 104.64 28.365C104.79 28.245 104.79 28.005 104.64 27.645L100.95 16.71H100.86L96.5401 28.635C96.6901 28.575 96.8701 28.545 97.0801 28.545C97.2901 28.515 97.5301 28.5 97.8001 28.5H103.83ZM121.955 37.5C121.565 38.64 121.565 39.495 121.955 40.065C122.375 40.605 123.545 40.905 125.465 40.965V42H116.15V40.965C117.11 40.905 117.875 40.605 118.445 40.065C119.015 39.495 119.495 38.64 119.885 37.5L127.175 15.63C127.445 14.85 127.715 14.085 127.985 13.335C128.285 12.585 128.54 11.82 128.75 11.04H130.955C131.165 11.82 131.405 12.585 131.675 13.335C131.975 14.055 132.245 14.82 132.485 15.63L139.145 37.5C139.475 38.55 139.805 39.315 140.135 39.795C140.465 40.275 140.87 40.575 141.35 40.695C141.83 40.815 142.46 40.905 143.24 40.965V42H132.485V40.965C133.505 40.905 134.255 40.8 134.735 40.65C135.245 40.5 135.53 40.185 135.59 39.705C135.65 39.225 135.5 38.49 135.14 37.5L128.84 16.71H128.75L121.955 37.5ZM160.114 11.4C162.154 11.4 164.074 11.76 165.874 12.48C167.674 13.2 169.279 14.25 170.689 15.63C172.099 16.98 173.194 18.615 173.974 20.535C174.784 22.455 175.189 24.6 175.189 26.97C175.189 29.34 174.784 31.485 173.974 33.405C173.194 35.325 172.099 36.975 170.689 38.355C169.309 39.735 167.704 40.8 165.874 41.55C164.044 42.3 162.109 42.675 160.069 42.675C158.059 42.675 156.139 42.315 154.309 41.595C152.509 40.875 150.904 39.84 149.494 38.49C148.114 37.11 147.019 35.46 146.209 33.54C145.429 31.62 145.039 29.475 145.039 27.105C145.039 24.735 145.429 22.59 146.209 20.67C147.019 18.75 148.114 17.1 149.494 15.72C150.904 14.34 152.509 13.275 154.309 12.525C156.139 11.775 158.074 11.4 160.114 11.4ZM160.744 40.875C162.544 40.875 164.194 40.38 165.694 39.39C167.224 38.4 168.454 36.945 169.384 35.025C170.314 33.075 170.779 30.675 170.779 27.825C170.779 24.705 170.239 22.065 169.159 19.905C168.079 17.715 166.684 16.05 164.974 14.91C163.264 13.77 161.434 13.2 159.484 13.2C157.684 13.2 156.019 13.695 154.489 14.685C152.959 15.675 151.729 17.145 150.799 19.095C149.869 21.015 149.404 23.4 149.404 26.25C149.404 29.37 149.944 32.025 151.024 34.215C152.104 36.375 153.514 38.025 155.254 39.165C156.994 40.305 158.824 40.875 160.744 40.875ZM200.211 12.075V19.545H199.176C199.086 18.405 198.876 17.4 198.546 16.53C198.246 15.66 197.706 14.97 196.926 14.46C196.176 13.95 195.051 13.695 193.551 13.695H189.816C189.186 13.695 188.691 13.845 188.331 14.145C188.001 14.445 187.836 15.255 187.836 16.575V37.5C187.836 38.52 187.941 39.27 188.151 39.75C188.391 40.23 188.811 40.545 189.411 40.695C190.041 40.845 190.941 40.935 192.111 40.965V42H180.861V40.965C181.671 40.935 182.301 40.845 182.751 40.695C183.231 40.545 183.561 40.23 183.741 39.75C183.921 39.27 184.011 38.52 184.011 37.5V16.575C184.011 15.525 183.891 14.775 183.651 14.325C183.441 13.845 183.036 13.53 182.436 13.38C181.836 13.23 180.936 13.14 179.736 13.11V12.075H200.211ZM226.39 29.625C224.53 29.625 223.045 29.295 221.935 28.635C220.825 27.945 220.03 27.045 219.55 25.935C219.1 24.825 218.875 23.61 218.875 22.29V16.575C218.875 15.525 218.77 14.775 218.56 14.325C218.38 13.845 218.05 13.53 217.57 13.38C217.09 13.23 216.4 13.14 215.5 13.11V12.075H225.85V13.11C225.04 13.14 224.41 13.23 223.96 13.38C223.51 13.53 223.18 13.845 222.97 14.325C222.79 14.775 222.7 15.525 222.7 16.575V21.84C222.7 22.83 222.85 23.775 223.15 24.675C223.48 25.545 224.02 26.25 224.77 26.79C225.52 27.33 226.525 27.6 227.785 27.6C228.925 27.6 230.17 27.465 231.52 27.195C232.9 26.925 234.175 26.505 235.345 25.935V16.575C235.345 15.525 235.225 14.775 234.985 14.325C234.775 13.845 234.37 13.53 233.77 13.38C233.17 13.23 232.27 13.14 231.07 13.11V12.075H242.32V13.11C241.51 13.14 240.88 13.23 240.43 13.38C239.98 13.53 239.65 13.845 239.44 14.325C239.26 14.775 239.17 15.525 239.17 16.575V37.5C239.17 38.52 239.275 39.27 239.485 39.75C239.725 40.23 240.145 40.545 240.745 40.695C241.375 40.845 242.275 40.935 243.445 40.965V42H232.195V40.965C233.005 40.935 233.635 40.845 234.085 40.695C234.565 40.545 234.895 40.23 235.075 39.75C235.255 39.27 235.345 38.52 235.345 37.5V27.6C234.265 28.08 233.02 28.545 231.61 28.995C230.23 29.415 228.49 29.625 226.39 29.625ZM263.913 11.4C265.953 11.4 267.873 11.76 269.673 12.48C271.473 13.2 273.078 14.25 274.488 15.63C275.898 16.98 276.993 18.615 277.773 20.535C278.583 22.455 278.988 24.6 278.988 26.97C278.988 29.34 278.583 31.485 277.773 33.405C276.993 35.325 275.898 36.975 274.488 38.355C273.108 39.735 271.503 40.8 269.673 41.55C267.843 42.3 265.908 42.675 263.868 42.675C261.858 42.675 259.938 42.315 258.108 41.595C256.308 40.875 254.703 39.84 253.293 38.49C251.913 37.11 250.818 35.46 250.008 33.54C249.228 31.62 248.838 29.475 248.838 27.105C248.838 24.735 249.228 22.59 250.008 20.67C250.818 18.75 251.913 17.1 253.293 15.72C254.703 14.34 256.308 13.275 258.108 12.525C259.938 11.775 261.873 11.4 263.913 11.4ZM264.543 40.875C266.343 40.875 267.993 40.38 269.493 39.39C271.023 38.4 272.253 36.945 273.183 35.025C274.113 33.075 274.578 30.675 274.578 27.825C274.578 24.705 274.038 22.065 272.958 19.905C271.878 17.715 270.483 16.05 268.773 14.91C267.063 13.77 265.233 13.2 263.283 13.2C261.483 13.2 259.818 13.695 258.288 14.685C256.758 15.675 255.528 17.145 254.598 19.095C253.668 21.015 253.203 23.4 253.203 26.25C253.203 29.37 253.743 32.025 254.823 34.215C255.903 36.375 257.313 38.025 259.053 39.165C260.793 40.305 262.623 40.875 264.543 40.875ZM287.057 37.5C286.667 38.64 286.667 39.495 287.057 40.065C287.477 40.605 288.647 40.905 290.567 40.965V42H281.252V40.965C282.212 40.905 282.977 40.605 283.547 40.065C284.117 39.495 284.597 38.64 284.987 37.5L292.277 15.63C292.547 14.85 292.817 14.085 293.087 13.335C293.387 12.585 293.642 11.82 293.852 11.04H296.057C296.267 11.82 296.507 12.585 296.777 13.335C297.077 14.055 297.347 14.82 297.587 15.63L304.247 37.5C304.577 38.55 304.907 39.315 305.237 39.795C305.567 40.275 305.972 40.575 306.452 40.695C306.932 40.815 307.562 40.905 308.342 40.965V42H297.587V40.965C298.607 40.905 299.357 40.8 299.837 40.65C300.347 40.5 300.632 40.185 300.692 39.705C300.752 39.225 300.602 38.49 300.242 37.5L293.942 16.71H293.852L287.057 37.5ZM325.216 11.4C327.256 11.4 329.176 11.76 330.976 12.48C332.776 13.2 334.381 14.25 335.791 15.63C337.201 16.98 338.296 18.615 339.076 20.535C339.886 22.455 340.291 24.6 340.291 26.97C340.291 29.34 339.886 31.485 339.076 33.405C338.296 35.325 337.201 36.975 335.791 38.355C334.411 39.735 332.806 40.8 330.976 41.55C329.146 42.3 327.211 42.675 325.171 42.675C323.161 42.675 321.241 42.315 319.411 41.595C317.611 40.875 316.006 39.84 314.596 38.49C313.216 37.11 312.121 35.46 311.311 33.54C310.531 31.62 310.141 29.475 310.141 27.105C310.141 24.735 310.531 22.59 311.311 20.67C312.121 18.75 313.216 17.1 314.596 15.72C316.006 14.34 317.611 13.275 319.411 12.525C321.241 11.775 323.176 11.4 325.216 11.4ZM325.846 40.875C327.646 40.875 329.296 40.38 330.796 39.39C332.326 38.4 333.556 36.945 334.486 35.025C335.416 33.075 335.881 30.675 335.881 27.825C335.881 24.705 335.341 22.065 334.261 19.905C333.181 17.715 331.786 16.05 330.076 14.91C328.366 13.77 326.536 13.2 324.586 13.2C322.786 13.2 321.121 13.695 319.591 14.685C318.061 15.675 316.831 17.145 315.901 19.095C314.971 21.015 314.506 23.4 314.506 26.25C314.506 29.37 315.046 32.025 316.126 34.215C317.206 36.375 318.616 38.025 320.356 39.165C322.096 40.305 323.926 40.875 325.846 40.875ZM345.963 42V40.965C346.773 40.935 347.403 40.845 347.853 40.695C348.333 40.545 348.663 40.23 348.843 39.75C349.023 39.27 349.113 38.52 349.113 37.5V16.575C349.113 15.525 348.993 14.775 348.753 14.325C348.543 13.845 348.138 13.53 347.538 13.38C346.938 13.23 346.038 13.14 344.838 13.11V12.075H349.113C350.583 12.075 351.783 12.06 352.713 12.03C353.643 11.97 354.498 11.925 355.278 11.895C356.088 11.865 357.018 11.85 358.068 11.85C361.248 11.85 363.573 12.405 365.043 13.515C366.513 14.595 367.248 16.02 367.248 17.79C367.248 19.62 366.648 21.075 365.448 22.155C364.248 23.235 362.778 24.09 361.038 24.72V24.81C362.868 24.9 364.488 25.26 365.898 25.89C367.338 26.49 368.478 27.345 369.318 28.455C370.158 29.565 370.578 30.915 370.578 32.505C370.578 34.065 370.158 35.58 369.318 37.05C368.508 38.49 367.218 39.675 365.448 40.605C363.708 41.535 361.428 42 358.608 42H345.963ZM352.938 25.35C353.328 25.08 353.688 24.915 354.018 24.855C354.378 24.765 354.798 24.705 355.278 24.675C356.178 24.585 357.078 24.45 357.978 24.27C358.908 24.06 359.748 23.73 360.498 23.28C361.278 22.83 361.908 22.215 362.388 21.435C362.868 20.625 363.108 19.605 363.108 18.375C363.108 16.965 362.778 15.915 362.118 15.225C361.458 14.535 360.633 14.07 359.643 13.83C358.653 13.59 357.633 13.47 356.583 13.47C355.293 13.47 354.363 13.635 353.793 13.965C353.223 14.295 352.938 15.165 352.938 16.575V25.35ZM358.248 40.38C360.378 40.38 362.028 39.99 363.198 39.21C364.398 38.43 365.238 37.47 365.718 36.33C366.198 35.16 366.438 34.005 366.438 32.865C366.438 31.215 366.018 29.91 365.178 28.95C364.368 27.96 363.258 27.255 361.848 26.835C360.468 26.385 358.908 26.16 357.168 26.16C355.698 26.16 354.618 26.355 353.928 26.745C353.268 27.105 352.938 27.795 352.938 28.815V37.5C352.938 38.37 353.088 39.015 353.388 39.435C353.688 39.825 354.213 40.08 354.963 40.2C355.743 40.32 356.838 40.38 358.248 40.38ZM376.207 42V40.965C377.017 40.935 377.647 40.845 378.097 40.695C378.577 40.545 378.907 40.23 379.087 39.75C379.267 39.27 379.357 38.52 379.357 37.5V16.575C379.357 15.525 379.237 14.775 378.997 14.325C378.787 13.845 378.382 13.53 377.782 13.38C377.182 13.23 376.282 13.14 375.082 13.11V12.075H386.332V13.11C385.522 13.14 384.892 13.23 384.442 13.38C383.992 13.53 383.662 13.845 383.452 14.325C383.272 14.775 383.182 15.525 383.182 16.575V37.5C383.182 38.52 383.287 39.27 383.497 39.75C383.737 40.23 384.157 40.545 384.757 40.695C385.387 40.845 386.287 40.935 387.457 40.965V42H376.207ZM402.127 29.625C400.267 29.625 398.782 29.295 397.672 28.635C396.562 27.945 395.767 27.045 395.287 25.935C394.837 24.825 394.612 23.61 394.612 22.29V16.575C394.612 15.525 394.507 14.775 394.297 14.325C394.117 13.845 393.787 13.53 393.307 13.38C392.827 13.23 392.137 13.14 391.237 13.11V12.075H401.587V13.11C400.777 13.14 400.147 13.23 399.697 13.38C399.247 13.53 398.917 13.845 398.707 14.325C398.527 14.775 398.437 15.525 398.437 16.575V21.84C398.437 22.83 398.587 23.775 398.887 24.675C399.217 25.545 399.757 26.25 400.507 26.79C401.257 27.33 402.262 27.6 403.522 27.6C404.662 27.6 405.907 27.465 407.257 27.195C408.637 26.925 409.912 26.505 411.082 25.935V16.575C411.082 15.525 410.962 14.775 410.722 14.325C410.512 13.845 410.107 13.53 409.507 13.38C408.907 13.23 408.007 13.14 406.807 13.11V12.075H418.057V13.11C417.247 13.14 416.617 13.23 416.167 13.38C415.717 13.53 415.387 13.845 415.177 14.325C414.997 14.775 414.907 15.525 414.907 16.575V37.5C414.907 38.52 415.012 39.27 415.222 39.75C415.462 40.23 415.882 40.545 416.482 40.695C417.112 40.845 418.012 40.935 419.182 40.965V42H407.932V40.965C408.742 40.935 409.372 40.845 409.822 40.695C410.302 40.545 410.632 40.23 410.812 39.75C410.992 39.27 411.082 38.52 411.082 37.5V27.6C410.002 28.08 408.757 28.545 407.347 28.995C405.967 29.415 404.227 29.625 402.127 29.625ZM424.845 42V40.965C425.655 40.935 426.285 40.845 426.735 40.695C427.215 40.545 427.545 40.23 427.725 39.75C427.905 39.27 427.995 38.52 427.995 37.5V16.575C427.995 15.525 427.875 14.775 427.635 14.325C427.425 13.845 427.02 13.53 426.42 13.38C425.82 13.23 424.92 13.14 423.72 13.11V12.075H434.97V13.11C434.16 13.14 433.53 13.23 433.08 13.38C432.63 13.53 432.3 13.845 432.09 14.325C431.91 14.775 431.82 15.525 431.82 16.575V37.23L448.92 12.075H454.995V13.11C454.185 13.14 453.555 13.23 453.105 13.38C452.655 13.53 452.325 13.845 452.115 14.325C451.935 14.775 451.845 15.525 451.845 16.575V37.5C451.845 38.52 451.95 39.27 452.16 39.75C452.37 40.23 452.775 40.545 453.375 40.695C454.005 40.845 454.905 40.935 456.075 40.965V42H444.87V40.965C445.68 40.935 446.31 40.845 446.76 40.695C447.24 40.545 447.57 40.23 447.75 39.75C447.93 39.27 448.02 38.52 448.02 37.5V16.89L430.92 42H424.845ZM457.91 42V40.965C458.87 40.905 459.68 40.62 460.34 40.11C461.03 39.57 461.705 38.7 462.365 37.5L468.035 27.33C468.275 26.88 468.41 26.49 468.44 26.16C468.47 25.8 468.365 25.38 468.125 24.9L463.58 16.575C463.04 15.555 462.56 14.805 462.14 14.325C461.72 13.845 461.27 13.53 460.79 13.38C460.31 13.23 459.695 13.14 458.945 13.11V12.075H469.43V13.11C468.17 13.17 467.375 13.395 467.045 13.785C466.745 14.175 467 15.105 467.81 16.575L471.545 23.37H471.635L475.46 16.575C476.12 15.405 476.33 14.55 476.09 14.01C475.88 13.47 475.115 13.17 473.795 13.11V12.075H481.985V13.11C481.085 13.17 480.32 13.455 479.69 13.965C479.09 14.475 478.43 15.345 477.71 16.575L473.525 23.775C473.015 24.615 472.985 25.47 473.435 26.34L479.6 37.5C480.2 38.55 480.695 39.315 481.085 39.795C481.475 40.245 481.88 40.545 482.3 40.695C482.72 40.815 483.23 40.905 483.83 40.965V42H473.615V40.965C474.515 40.905 475.175 40.8 475.595 40.65C476.045 40.5 476.255 40.185 476.225 39.705C476.195 39.225 475.895 38.49 475.325 37.5L470.015 27.825H469.925L464.66 37.5C464 38.7 463.88 39.57 464.3 40.11C464.72 40.62 465.74 40.905 467.36 40.965V42H457.91ZM40.05 91.5C40.05 92.52 40.155 93.27 40.365 93.75C40.605 94.23 41.025 94.545 41.625 94.695C42.255 94.845 43.155 94.935 44.325 94.965V96H2.925V94.965C3.735 94.935 4.365 94.845 4.815 94.695C5.295 94.545 5.625 94.23 5.805 93.75C5.985 93.27 6.075 92.52 6.075 91.5V70.575C6.075 69.525 5.97 68.775 5.76 68.325C5.55 67.845 5.13 67.53 4.5 67.38C3.9 67.23 3.015 67.14 1.845 67.11V66.075H13.05V67.11C12.24 67.14 11.61 67.23 11.16 67.38C10.71 67.53 10.38 67.845 10.17 68.325C9.99 68.775 9.9 69.525 9.9 70.575V91.5C9.9 92.76 10.125 93.555 10.575 93.885C11.055 94.215 11.955 94.38 13.275 94.38H18.9C19.68 94.38 20.25 94.215 20.61 93.885C20.97 93.555 21.15 92.76 21.15 91.5V70.575C21.15 69.525 21.045 68.775 20.835 68.325C20.655 67.845 20.325 67.53 19.845 67.38C19.365 67.23 18.69 67.14 17.82 67.11V66.075H28.125V67.11C27.315 67.14 26.685 67.23 26.235 67.38C25.785 67.53 25.455 67.845 25.245 68.325C25.065 68.775 24.975 69.525 24.975 70.575V91.5C24.975 92.34 25.08 92.97 25.29 93.39C25.53 93.78 25.95 94.05 26.55 94.2C27.18 94.32 28.08 94.38 29.25 94.38H33.975C34.755 94.38 35.325 94.215 35.685 93.885C36.045 93.555 36.225 92.76 36.225 91.5V70.575C36.225 69.525 36.12 68.775 35.91 68.325C35.73 67.845 35.4 67.53 34.92 67.38C34.44 67.23 33.765 67.14 32.895 67.11V66.075H43.2V67.11C42.39 67.14 41.76 67.23 41.31 67.38C40.86 67.53 40.53 67.845 40.32 68.325C40.14 68.775 40.05 69.525 40.05 70.575V91.5ZM74.5365 96.27C72.7965 96.27 71.4615 95.94 70.5315 95.28C69.6015 94.59 68.7315 93.735 67.9215 92.715L58.6065 81.015C58.2165 80.535 57.9165 80.205 57.7065 80.025C57.4965 79.845 57.2715 79.755 57.0315 79.755C56.7915 79.755 56.5815 79.845 56.4015 80.025C56.2215 80.175 56.1315 80.52 56.1315 81.06V91.5C56.1315 92.52 56.2365 93.27 56.4465 93.75C56.6865 94.23 57.1065 94.545 57.7065 94.695C58.3065 94.845 59.1915 94.935 60.3615 94.965V96H49.1565V94.965C49.9665 94.935 50.5965 94.845 51.0465 94.695C51.5265 94.545 51.8565 94.23 52.0365 93.75C52.2165 93.27 52.3065 92.52 52.3065 91.5V70.575C52.3065 69.525 52.1865 68.775 51.9465 68.325C51.7365 67.845 51.3315 67.53 50.7315 67.38C50.1315 67.23 49.2315 67.14 48.0315 67.11V66.075H59.2815V67.11C58.4715 67.14 57.8415 67.23 57.3915 67.38C56.9415 67.53 56.6115 67.845 56.4015 68.325C56.2215 68.775 56.1315 69.525 56.1315 70.575V78.09H56.2215L65.8515 70.26C66.5715 69.66 67.0365 69.21 67.2465 68.91C67.4565 68.61 67.5615 68.34 67.5615 68.1C67.5615 67.8 67.3965 67.575 67.0665 67.425C66.7365 67.245 66.1065 67.14 65.1765 67.11V66.075H74.6265V67.11C73.7265 67.17 72.9165 67.395 72.1965 67.785C71.4765 68.175 70.6515 68.745 69.7215 69.495L61.1715 76.47C60.6915 76.83 60.6915 77.325 61.1715 77.955L71.7015 91.365C72.5115 92.385 73.1715 93.15 73.6815 93.66C74.2215 94.17 74.7315 94.515 75.2115 94.695C75.7215 94.875 76.3065 94.965 76.9665 94.965V96C76.1565 96.18 75.3465 96.27 74.5365 96.27ZM80.543 96V94.965C81.353 94.935 81.983 94.845 82.433 94.695C82.913 94.545 83.243 94.23 83.423 93.75C83.603 93.27 83.693 92.52 83.693 91.5V70.575C83.693 69.525 83.573 68.775 83.333 68.325C83.123 67.845 82.718 67.53 82.118 67.38C81.518 67.23 80.618 67.14 79.418 67.11V66.075H90.668V67.11C89.858 67.14 89.228 67.23 88.778 67.38C88.328 67.53 87.998 67.845 87.788 68.325C87.608 68.775 87.518 69.525 87.518 70.575V91.5C87.518 92.52 87.623 93.27 87.833 93.75C88.073 94.23 88.493 94.545 89.093 94.695C89.723 94.845 90.623 94.935 91.793 94.965V96H80.543ZM97.013 96V94.965C97.823 94.935 98.453 94.845 98.903 94.695C99.383 94.545 99.713 94.23 99.893 93.75C100.073 93.27 100.163 92.52 100.163 91.5V70.575C100.163 69.525 100.043 68.775 99.803 68.325C99.593 67.845 99.188 67.53 98.588 67.38C97.988 67.23 97.088 67.14 95.888 67.11V66.075H100.163C102.203 66.075 103.853 66.045 105.113 65.985C106.403 65.895 107.438 65.85 108.218 65.85C111.338 65.85 113.843 66.465 115.733 67.695C117.623 68.895 118.568 70.62 118.568 72.87C118.568 73.95 118.313 75.015 117.803 76.065C117.323 77.115 116.543 78.06 115.463 78.9C114.383 79.71 112.973 80.325 111.233 80.745C109.493 81.135 107.378 81.21 104.888 80.97V79.62C107.288 79.83 109.163 79.65 110.513 79.08C111.893 78.48 112.868 77.655 113.438 76.605C114.008 75.525 114.293 74.37 114.293 73.14C114.293 71.61 113.948 70.44 113.258 69.63C112.598 68.79 111.713 68.22 110.603 67.92C109.523 67.62 108.353 67.47 107.093 67.47C106.073 67.47 105.293 67.65 104.753 68.01C104.243 68.37 103.988 69.225 103.988 70.575V91.5C103.988 92.52 104.093 93.27 104.303 93.75C104.543 94.23 104.993 94.545 105.653 94.695C106.343 94.845 107.348 94.935 108.668 94.965V96H97.013ZM121.428 96.27C120.618 96.27 119.808 96.18 118.998 96V94.965C119.688 94.965 120.288 94.89 120.798 94.74C121.308 94.59 121.833 94.26 122.373 93.75C122.913 93.24 123.543 92.445 124.263 91.365L131.913 79.71C129.783 79.29 128.028 78.525 126.648 77.415C125.298 76.275 124.623 74.775 124.623 72.915C124.623 71.625 124.968 70.455 125.658 69.405C126.378 68.325 127.473 67.47 128.943 66.84C130.413 66.18 132.288 65.85 134.568 65.85C135.438 65.85 136.398 65.895 137.448 65.985C138.528 66.045 139.743 66.075 141.093 66.075H145.953V67.11C145.143 67.14 144.513 67.23 144.063 67.38C143.613 67.53 143.283 67.845 143.073 68.325C142.893 68.775 142.803 69.525 142.803 70.575V91.5C142.803 92.52 142.908 93.27 143.118 93.75C143.328 94.23 143.733 94.545 144.333 94.695C144.963 94.845 145.863 94.935 147.033 94.965V96H135.828V94.965C136.638 94.935 137.268 94.845 137.718 94.695C138.198 94.545 138.528 94.23 138.708 93.75C138.888 93.27 138.978 92.52 138.978 91.5V70.575C138.978 69.195 138.708 68.34 138.168 68.01C137.658 67.65 136.863 67.47 135.783 67.47C134.643 67.47 133.533 67.605 132.453 67.875C131.403 68.145 130.548 68.67 129.888 69.45C129.228 70.2 128.898 71.31 128.898 72.78C128.898 74.94 129.708 76.545 131.328 77.595C132.948 78.645 135.198 79.05 138.078 78.81V80.16C137.208 80.16 136.563 80.25 136.143 80.43C135.753 80.58 135.393 80.91 135.063 81.42L127.818 92.715C127.128 93.825 126.318 94.695 125.388 95.325C124.488 95.955 123.168 96.27 121.428 96.27ZM151.857 96V94.965C152.667 94.935 153.297 94.845 153.747 94.695C154.227 94.545 154.557 94.23 154.737 93.75C154.917 93.27 155.007 92.52 155.007 91.5V70.575C155.007 69.525 154.887 68.775 154.647 68.325C154.437 67.845 154.032 67.53 153.432 67.38C152.832 67.23 151.932 67.14 150.732 67.11V66.075H161.982V67.11C161.172 67.14 160.542 67.23 160.092 67.38C159.642 67.53 159.312 67.845 159.102 68.325C158.922 68.775 158.832 69.525 158.832 70.575V78.45C159.072 78.27 159.357 78.15 159.687 78.09C160.047 78.03 160.467 78 160.947 78H172.827C173.637 78 174.207 77.865 174.537 77.595C174.867 77.325 175.032 76.785 175.032 75.975V70.575C175.032 69.525 174.912 68.775 174.672 68.325C174.462 67.845 174.057 67.53 173.457 67.38C172.857 67.23 171.957 67.14 170.757 67.11V66.075H182.007V67.11C181.197 67.14 180.567 67.23 180.117 67.38C179.667 67.53 179.337 67.845 179.127 68.325C178.947 68.775 178.857 69.525 178.857 70.575V91.5C178.857 92.52 178.962 93.27 179.172 93.75C179.382 94.23 179.787 94.545 180.387 94.695C181.017 94.845 181.917 94.935 183.087 94.965V96H171.882V94.965C172.692 94.935 173.322 94.845 173.772 94.695C174.252 94.545 174.582 94.23 174.762 93.75C174.942 93.27 175.032 92.52 175.032 91.5V79.125C174.792 79.335 174.492 79.47 174.132 79.53C173.772 79.59 173.367 79.62 172.917 79.62H161.037C160.227 79.62 159.657 79.755 159.327 80.025C158.997 80.295 158.832 80.82 158.832 81.6V91.5C158.832 92.52 158.937 93.27 159.147 93.75C159.387 94.23 159.807 94.545 160.407 94.695C161.007 94.845 161.892 94.935 163.062 94.965V96H151.857ZM187.892 96V94.965C188.702 94.935 189.332 94.845 189.782 94.695C190.262 94.545 190.592 94.23 190.772 93.75C190.952 93.27 191.042 92.52 191.042 91.5V70.575C191.042 69.525 190.922 68.775 190.682 68.325C190.472 67.845 190.067 67.53 189.467 67.38C188.867 67.23 187.967 67.14 186.767 67.11V66.075H198.017V67.11C197.207 67.14 196.577 67.23 196.127 67.38C195.677 67.53 195.347 67.845 195.137 68.325C194.957 68.775 194.867 69.525 194.867 70.575V91.23L211.967 66.075H218.042V67.11C217.232 67.14 216.602 67.23 216.152 67.38C215.702 67.53 215.372 67.845 215.162 68.325C214.982 68.775 214.892 69.525 214.892 70.575V91.5C214.892 92.52 214.997 93.27 215.207 93.75C215.417 94.23 215.822 94.545 216.422 94.695C217.052 94.845 217.952 94.935 219.122 94.965V96H207.917V94.965C208.727 94.935 209.357 94.845 209.807 94.695C210.287 94.545 210.617 94.23 210.797 93.75C210.977 93.27 211.067 92.52 211.067 91.5V70.89L193.967 96H187.892ZM220.957 96V94.965C221.917 94.905 222.727 94.62 223.387 94.11C224.077 93.57 224.752 92.7 225.412 91.5L231.082 81.33C231.322 80.88 231.457 80.49 231.487 80.16C231.517 79.8 231.412 79.38 231.172 78.9L226.627 70.575C226.087 69.555 225.607 68.805 225.187 68.325C224.767 67.845 224.317 67.53 223.837 67.38C223.357 67.23 222.742 67.14 221.992 67.11V66.075H232.477V67.11C231.217 67.17 230.422 67.395 230.092 67.785C229.792 68.175 230.047 69.105 230.857 70.575L234.592 77.37H234.682L238.507 70.575C239.167 69.405 239.377 68.55 239.137 68.01C238.927 67.47 238.162 67.17 236.842 67.11V66.075H245.032V67.11C244.132 67.17 243.367 67.455 242.737 67.965C242.137 68.475 241.477 69.345 240.757 70.575L236.572 77.775C236.062 78.615 236.032 79.47 236.482 80.34L242.647 91.5C243.247 92.55 243.742 93.315 244.132 93.795C244.522 94.245 244.927 94.545 245.347 94.695C245.767 94.815 246.277 94.905 246.877 94.965V96H236.662V94.965C237.562 94.905 238.222 94.8 238.642 94.65C239.092 94.5 239.302 94.185 239.272 93.705C239.242 93.225 238.942 92.49 238.372 91.5L233.062 81.825H232.972L227.707 91.5C227.047 92.7 226.927 93.57 227.347 94.11C227.767 94.62 228.787 94.905 230.407 94.965V96H220.957ZM288.688 91.5C288.688 92.52 288.793 93.27 289.003 93.75C289.213 94.23 289.618 94.545 290.218 94.695C290.848 94.845 291.748 94.935 292.918 94.965V96H281.713V94.965C282.523 94.935 283.153 94.845 283.603 94.695C284.083 94.545 284.413 94.23 284.593 93.75C284.773 93.27 284.863 92.52 284.863 91.5V70.575C284.863 69.315 284.623 68.52 284.143 68.19C283.693 67.86 282.808 67.695 281.488 67.695H272.263C271.513 67.695 270.943 67.86 270.553 68.19C270.193 68.52 270.013 69.315 270.013 70.575V91.5C270.013 92.52 270.118 93.27 270.328 93.75C270.568 94.23 270.988 94.545 271.588 94.695C272.188 94.845 273.073 94.935 274.243 94.965V96H263.038V94.965C263.848 94.935 264.478 94.845 264.928 94.695C265.408 94.545 265.738 94.23 265.918 93.75C266.098 93.27 266.188 92.52 266.188 91.5V70.575C266.188 69.525 266.068 68.775 265.828 68.325C265.618 67.845 265.213 67.53 264.613 67.38C264.013 67.23 263.113 67.14 261.913 67.11V66.075H291.838V67.11C291.028 67.14 290.398 67.23 289.948 67.38C289.498 67.53 289.168 67.845 288.958 68.325C288.778 68.775 288.688 69.525 288.688 70.575V91.5ZM312.56 65.4C314.6 65.4 316.52 65.76 318.32 66.48C320.12 67.2 321.725 68.25 323.135 69.63C324.545 70.98 325.64 72.615 326.42 74.535C327.23 76.455 327.635 78.6 327.635 80.97C327.635 83.34 327.23 85.485 326.42 87.405C325.64 89.325 324.545 90.975 323.135 92.355C321.755 93.735 320.15 94.8 318.32 95.55C316.49 96.3 314.555 96.675 312.515 96.675C310.505 96.675 308.585 96.315 306.755 95.595C304.955 94.875 303.35 93.84 301.94 92.49C300.56 91.11 299.465 89.46 298.655 87.54C297.875 85.62 297.485 83.475 297.485 81.105C297.485 78.735 297.875 76.59 298.655 74.67C299.465 72.75 300.56 71.1 301.94 69.72C303.35 68.34 304.955 67.275 306.755 66.525C308.585 65.775 310.52 65.4 312.56 65.4ZM313.19 94.875C314.99 94.875 316.64 94.38 318.14 93.39C319.67 92.4 320.9 90.945 321.83 89.025C322.76 87.075 323.225 84.675 323.225 81.825C323.225 78.705 322.685 76.065 321.605 73.905C320.525 71.715 319.13 70.05 317.42 68.91C315.71 67.77 313.88 67.2 311.93 67.2C310.13 67.2 308.465 67.695 306.935 68.685C305.405 69.675 304.175 71.145 303.245 73.095C302.315 75.015 301.85 77.4 301.85 80.25C301.85 83.37 302.39 86.025 303.47 88.215C304.55 90.375 305.96 92.025 307.7 93.165C309.44 94.305 311.27 94.875 313.19 94.875ZM331.135 96.27C330.325 96.27 329.515 96.18 328.705 96V94.965C329.395 94.965 329.995 94.89 330.505 94.74C331.015 94.59 331.54 94.26 332.08 93.75C332.62 93.24 333.25 92.445 333.97 91.365L341.62 79.71C339.49 79.29 337.735 78.525 336.355 77.415C335.005 76.275 334.33 74.775 334.33 72.915C334.33 71.625 334.675 70.455 335.365 69.405C336.085 68.325 337.18 67.47 338.65 66.84C340.12 66.18 341.995 65.85 344.275 65.85C345.145 65.85 346.105 65.895 347.155 65.985C348.235 66.045 349.45 66.075 350.8 66.075H355.66V67.11C354.85 67.14 354.22 67.23 353.77 67.38C353.32 67.53 352.99 67.845 352.78 68.325C352.6 68.775 352.51 69.525 352.51 70.575V91.5C352.51 92.52 352.615 93.27 352.825 93.75C353.035 94.23 353.44 94.545 354.04 94.695C354.67 94.845 355.57 94.935 356.74 94.965V96H345.535V94.965C346.345 94.935 346.975 94.845 347.425 94.695C347.905 94.545 348.235 94.23 348.415 93.75C348.595 93.27 348.685 92.52 348.685 91.5V70.575C348.685 69.195 348.415 68.34 347.875 68.01C347.365 67.65 346.57 67.47 345.49 67.47C344.35 67.47 343.24 67.605 342.16 67.875C341.11 68.145 340.255 68.67 339.595 69.45C338.935 70.2 338.605 71.31 338.605 72.78C338.605 74.94 339.415 76.545 341.035 77.595C342.655 78.645 344.905 79.05 347.785 78.81V80.16C346.915 80.16 346.27 80.25 345.85 80.43C345.46 80.58 345.1 80.91 344.77 81.42L337.525 92.715C336.835 93.825 336.025 94.695 335.095 95.325C334.195 95.955 332.875 96.27 331.135 96.27ZM376.864 96.675C374.674 96.675 372.634 96.315 370.744 95.595C368.854 94.845 367.189 93.795 365.749 92.445C364.339 91.065 363.244 89.43 362.464 87.54C361.684 85.65 361.294 83.565 361.294 81.285C361.294 78.825 361.744 76.62 362.644 74.67C363.544 72.69 364.774 71.01 366.334 69.63C367.894 68.25 369.694 67.2 371.734 66.48C373.774 65.76 375.934 65.4 378.214 65.4C379.324 65.4 380.449 65.475 381.589 65.625C382.759 65.775 383.839 65.985 384.829 66.255C385.849 66.495 386.689 66.765 387.349 67.065V74.175H386.314C386.194 72.405 385.699 71.025 384.829 70.035C383.959 69.015 382.879 68.295 381.589 67.875C380.329 67.425 379.009 67.2 377.629 67.2C375.499 67.2 373.519 67.68 371.689 68.64C369.859 69.6 368.389 71.07 367.279 73.05C366.199 75 365.659 77.505 365.659 80.565C365.659 83.475 366.169 86.01 367.189 88.17C368.209 90.3 369.559 91.95 371.239 93.12C372.949 94.29 374.839 94.875 376.909 94.875C378.799 94.875 380.464 94.44 381.904 93.57C383.374 92.67 384.574 91.545 385.504 90.195C386.434 88.845 387.049 87.48 387.349 86.1H388.384L388.114 91.365C386.974 92.775 385.504 94.02 383.704 95.1C381.904 96.15 379.624 96.675 376.864 96.675ZM393.653 96V94.965C394.463 94.935 395.093 94.845 395.543 94.695C396.023 94.545 396.353 94.23 396.533 93.75C396.713 93.27 396.803 92.52 396.803 91.5V70.575C396.803 69.525 396.683 68.775 396.443 68.325C396.233 67.845 395.828 67.53 395.228 67.38C394.628 67.23 393.728 67.14 392.528 67.11V66.075H403.778V67.11C402.968 67.14 402.338 67.23 401.888 67.38C401.438 67.53 401.108 67.845 400.898 68.325C400.718 68.775 400.628 69.525 400.628 70.575V91.5C400.628 92.52 400.733 93.27 400.943 93.75C401.183 94.23 401.603 94.545 402.203 94.695C402.833 94.845 403.733 94.935 404.903 94.965V96H393.653ZM410.123 96V94.965C410.933 94.935 411.563 94.845 412.013 94.695C412.493 94.545 412.823 94.23 413.003 93.75C413.183 93.27 413.273 92.52 413.273 91.5V70.575C413.273 69.525 413.153 68.775 412.913 68.325C412.703 67.845 412.298 67.53 411.698 67.38C411.098 67.23 410.198 67.14 408.998 67.11V66.075H413.273C414.743 66.075 415.943 66.06 416.873 66.03C417.803 65.97 418.658 65.925 419.438 65.895C420.248 65.865 421.178 65.85 422.228 65.85C425.408 65.85 427.733 66.405 429.203 67.515C430.673 68.595 431.408 70.02 431.408 71.79C431.408 73.62 430.808 75.075 429.608 76.155C428.408 77.235 426.938 78.09 425.198 78.72V78.81C427.028 78.9 428.648 79.26 430.058 79.89C431.498 80.49 432.638 81.345 433.478 82.455C434.318 83.565 434.738 84.915 434.738 86.505C434.738 88.065 434.318 89.58 433.478 91.05C432.668 92.49 431.378 93.675 429.608 94.605C427.868 95.535 425.588 96 422.768 96H410.123ZM417.098 79.35C417.488 79.08 417.848 78.915 418.178 78.855C418.538 78.765 418.958 78.705 419.438 78.675C420.338 78.585 421.238 78.45 422.138 78.27C423.068 78.06 423.908 77.73 424.658 77.28C425.438 76.83 426.068 76.215 426.548 75.435C427.028 74.625 427.268 73.605 427.268 72.375C427.268 70.965 426.938 69.915 426.278 69.225C425.618 68.535 424.793 68.07 423.803 67.83C422.813 67.59 421.793 67.47 420.743 67.47C419.453 67.47 418.523 67.635 417.953 67.965C417.383 68.295 417.098 69.165 417.098 70.575V79.35ZM422.408 94.38C424.538 94.38 426.188 93.99 427.358 93.21C428.558 92.43 429.398 91.47 429.878 90.33C430.358 89.16 430.598 88.005 430.598 86.865C430.598 85.215 430.178 83.91 429.338 82.95C428.528 81.96 427.418 81.255 426.008 80.835C424.628 80.385 423.068 80.16 421.328 80.16C419.858 80.16 418.778 80.355 418.088 80.745C417.428 81.105 417.098 81.795 417.098 82.815V91.5C417.098 92.37 417.248 93.015 417.548 93.435C417.848 93.825 418.373 94.08 419.123 94.2C419.903 94.32 420.998 94.38 422.408 94.38Z" fill="black"/>
<path d="M961.707 54.7071C962.098 54.3166 962.098 53.6834 961.707 53.2929L955.343 46.9289C954.953 46.5384 954.319 46.5384 953.929 46.9289C953.538 47.3195 953.538 47.9526 953.929 48.3431L959.586 54L953.929 59.6569C953.538 60.0474 953.538 60.6805 953.929 61.0711C954.319 61.4616 954.953 61.4616 955.343 61.0711L961.707 54.7071ZM0 55H961V53H0L0 55Z" fill="black"/>
</svg>
