<svg width="970" height="115" viewBox="0 0 970 115" fill="none" xmlns="http://www.w3.org/2000/svg">
<path d="M36.35 42.27C34.61 42.27 33.275 41.94 32.345 41.28C31.415 40.59 30.545 39.735 29.735 38.715L20.42 27.015C20.03 26.535 19.73 26.205 19.52 26.025C19.31 25.845 19.085 25.755 18.845 25.755C18.605 25.755 18.395 25.845 18.215 26.025C18.035 26.175 17.945 26.52 17.945 27.06V37.5C17.945 38.52 18.05 39.27 18.26 39.75C18.5 40.23 18.92 40.545 19.52 40.695C20.12 40.845 21.005 40.935 22.175 40.965V42H10.97V40.965C11.78 40.935 12.41 40.845 12.86 40.695C13.34 40.545 13.67 40.23 13.85 39.75C14.03 39.27 14.12 38.52 14.12 37.5V16.575C14.12 15.525 14 14.775 13.76 14.325C13.55 13.845 13.145 13.53 12.545 13.38C11.945 13.23 11.045 13.14 9.845 13.11V12.075H21.095V13.11C20.285 13.14 19.655 13.23 19.205 13.38C18.755 13.53 18.425 13.845 18.215 14.325C18.035 14.775 17.945 15.525 17.945 16.575V24.09H18.035L27.665 16.26C28.385 15.66 28.85 15.21 29.06 14.91C29.27 14.61 29.375 14.34 29.375 14.1C29.375 13.8 29.21 13.575 28.88 13.425C28.55 13.245 27.92 13.14 26.99 13.11V12.075H36.44V13.11C35.54 13.17 34.73 13.395 34.01 13.785C33.29 14.175 32.465 14.745 31.535 15.495L22.985 22.47C22.505 22.83 22.505 23.325 22.985 23.955L33.515 37.365C34.325 38.385 34.985 39.15 35.495 39.66C36.035 40.17 36.545 40.515 37.025 40.695C37.535 40.875 38.12 40.965 38.78 40.965V42C37.97 42.18 37.16 42.27 36.35 42.27ZM63.4164 37.5C63.7764 38.55 64.1214 39.315 64.4514 39.795C64.7814 40.245 65.1714 40.545 65.6214 40.695C66.1014 40.815 66.7314 40.905 67.5114 40.965V42H56.7564V40.965C57.7764 40.905 58.5264 40.8 59.0064 40.65C59.5164 40.5 59.8014 40.185 59.8614 39.705C59.9214 39.225 59.7714 38.49 59.4114 37.5L56.8464 29.76C56.6964 29.91 56.4714 30.015 56.1714 30.075C55.8714 30.105 55.5564 30.12 55.2264 30.12H49.3314C48.6714 30.12 48.1764 30.195 47.8464 30.345C47.5164 30.495 47.2314 30.9 46.9914 31.56L44.8764 37.5C44.4864 38.64 44.4864 39.495 44.8764 40.065C45.2964 40.605 46.4664 40.905 48.3864 40.965V42H39.0714V40.965C40.0314 40.905 40.7814 40.605 41.3214 40.065C41.8914 39.495 42.3864 38.64 42.8064 37.5L50.7714 15.63C51.0714 14.85 51.3564 14.085 51.6264 13.335C51.8964 12.585 52.1364 11.82 52.3464 11.04H54.5514C54.7614 11.82 54.9864 12.585 55.2264 13.335C55.4964 14.085 55.7814 14.85 56.0814 15.63L63.4164 37.5ZM55.3164 28.5C55.7064 28.5 55.9764 28.455 56.1264 28.365C56.2764 28.245 56.2764 28.005 56.1264 27.645L52.4364 16.71H52.3464L48.0264 28.635C48.1764 28.575 48.3564 28.545 48.5664 28.545C48.7764 28.515 49.0164 28.5 49.2864 28.5H55.3164ZM69.3909 12.075H93.6459V19.095H92.6109C92.5509 18.045 92.3859 17.115 92.1159 16.305C91.8459 15.495 91.3359 14.865 90.5859 14.415C89.8359 13.935 88.6959 13.695 87.1659 13.695H83.4309V37.5C83.4309 38.52 83.5359 39.27 83.7459 39.75C83.9859 40.23 84.4059 40.545 85.0059 40.695C85.6359 40.845 86.5359 40.935 87.7059 40.965V42H76.4559V40.965C77.2659 40.935 77.8959 40.845 78.3459 40.695C78.8259 40.545 79.1559 40.23 79.3359 39.75C79.5159 39.27 79.6059 38.52 79.6059 37.5V13.695H75.8259C74.3259 13.695 73.2009 13.935 72.4509 14.415C71.7009 14.865 71.1909 15.495 70.9209 16.305C70.6509 17.115 70.4859 18.045 70.4259 19.095H69.3909V12.075ZM119.93 37.5C120.29 38.55 120.635 39.315 120.965 39.795C121.295 40.245 121.685 40.545 122.135 40.695C122.615 40.815 123.245 40.905 124.025 40.965V42H113.27V40.965C114.29 40.905 115.04 40.8 115.52 40.65C116.03 40.5 116.315 40.185 116.375 39.705C116.435 39.225 116.285 38.49 115.925 37.5L113.36 29.76C113.21 29.91 112.985 30.015 112.685 30.075C112.385 30.105 112.07 30.12 111.74 30.12H105.845C105.185 30.12 104.69 30.195 104.36 30.345C104.03 30.495 103.745 30.9 103.505 31.56L101.39 37.5C101 38.64 101 39.495 101.39 40.065C101.81 40.605 102.98 40.905 104.9 40.965V42H95.5851V40.965C96.5451 40.905 97.2951 40.605 97.8351 40.065C98.4051 39.495 98.9001 38.64 99.3201 37.5L107.285 15.63C107.585 14.85 107.87 14.085 108.14 13.335C108.41 12.585 108.65 11.82 108.86 11.04H111.065C111.275 11.82 111.5 12.585 111.74 13.335C112.01 14.085 112.295 14.85 112.595 15.63L119.93 37.5ZM111.83 28.5C112.22 28.5 112.49 28.455 112.64 28.365C112.79 28.245 112.79 28.005 112.64 27.645L108.95 16.71H108.86L104.54 28.635C104.69 28.575 104.87 28.545 105.08 28.545C105.29 28.515 105.53 28.5 105.8 28.5H111.83ZM129.955 37.5C129.565 38.64 129.565 39.495 129.955 40.065C130.375 40.605 131.545 40.905 133.465 40.965V42H124.15V40.965C125.11 40.905 125.875 40.605 126.445 40.065C127.015 39.495 127.495 38.64 127.885 37.5L135.175 15.63C135.445 14.85 135.715 14.085 135.985 13.335C136.285 12.585 136.54 11.82 136.75 11.04H138.955C139.165 11.82 139.405 12.585 139.675 13.335C139.975 14.055 140.245 14.82 140.485 15.63L147.145 37.5C147.475 38.55 147.805 39.315 148.135 39.795C148.465 40.275 148.87 40.575 149.35 40.695C149.83 40.815 150.46 40.905 151.24 40.965V42H140.485V40.965C141.505 40.905 142.255 40.8 142.735 40.65C143.245 40.5 143.53 40.185 143.59 39.705C143.65 39.225 143.5 38.49 143.14 37.5L136.84 16.71H136.75L129.955 37.5ZM168.114 11.4C170.154 11.4 172.074 11.76 173.874 12.48C175.674 13.2 177.279 14.25 178.689 15.63C180.099 16.98 181.194 18.615 181.974 20.535C182.784 22.455 183.189 24.6 183.189 26.97C183.189 29.34 182.784 31.485 181.974 33.405C181.194 35.325 180.099 36.975 178.689 38.355C177.309 39.735 175.704 40.8 173.874 41.55C172.044 42.3 170.109 42.675 168.069 42.675C166.059 42.675 164.139 42.315 162.309 41.595C160.509 40.875 158.904 39.84 157.494 38.49C156.114 37.11 155.019 35.46 154.209 33.54C153.429 31.62 153.039 29.475 153.039 27.105C153.039 24.735 153.429 22.59 154.209 20.67C155.019 18.75 156.114 17.1 157.494 15.72C158.904 14.34 160.509 13.275 162.309 12.525C164.139 11.775 166.074 11.4 168.114 11.4ZM168.744 40.875C170.544 40.875 172.194 40.38 173.694 39.39C175.224 38.4 176.454 36.945 177.384 35.025C178.314 33.075 178.779 30.675 178.779 27.825C178.779 24.705 178.239 22.065 177.159 19.905C176.079 17.715 174.684 16.05 172.974 14.91C171.264 13.77 169.434 13.2 167.484 13.2C165.684 13.2 164.019 13.695 162.489 14.685C160.959 15.675 159.729 17.145 158.799 19.095C157.869 21.015 157.404 23.4 157.404 26.25C157.404 29.37 157.944 32.025 159.024 34.215C160.104 36.375 161.514 38.025 163.254 39.165C164.994 40.305 166.824 40.875 168.744 40.875ZM208.211 12.075V19.545H207.176C207.086 18.405 206.876 17.4 206.546 16.53C206.246 15.66 205.706 14.97 204.926 14.46C204.176 13.95 203.051 13.695 201.551 13.695H197.816C197.186 13.695 196.691 13.845 196.331 14.145C196.001 14.445 195.836 15.255 195.836 16.575V37.5C195.836 38.52 195.941 39.27 196.151 39.75C196.391 40.23 196.811 40.545 197.411 40.695C198.041 40.845 198.941 40.935 200.111 40.965V42H188.861V40.965C189.671 40.935 190.301 40.845 190.751 40.695C191.231 40.545 191.561 40.23 191.741 39.75C191.921 39.27 192.011 38.52 192.011 37.5V16.575C192.011 15.525 191.891 14.775 191.651 14.325C191.441 13.845 191.036 13.53 190.436 13.38C189.836 13.23 188.936 13.14 187.736 13.11V12.075H208.211ZM224.58 42.27C223.77 42.27 222.96 42.18 222.15 42V40.965C222.84 40.965 223.425 40.89 223.905 40.74C224.415 40.59 224.94 40.26 225.48 39.75C226.02 39.21 226.665 38.415 227.415 37.365L236.775 23.955C237.225 23.295 237.18 22.755 236.64 22.335L228.945 15.495C228.075 14.715 227.265 14.145 226.515 13.785C225.765 13.395 224.94 13.17 224.04 13.11V12.075H233.31V13.11C232.38 13.14 231.75 13.245 231.42 13.425C231.09 13.575 230.925 13.8 230.925 14.1C230.925 14.34 231.03 14.61 231.24 14.91C231.48 15.21 231.945 15.66 232.635 16.26L241.545 24.09H241.635V16.575C241.635 15.525 241.53 14.775 241.32 14.325C241.14 13.845 240.81 13.53 240.33 13.38C239.85 13.23 239.16 13.14 238.26 13.11V12.075H248.385V13.11C247.575 13.14 246.945 13.23 246.495 13.38C246.045 13.53 245.715 13.845 245.505 14.325C245.325 14.775 245.235 15.525 245.235 16.575V24.09H245.325L254.235 16.26C254.925 15.66 255.375 15.21 255.585 14.91C255.825 14.61 255.945 14.34 255.945 14.1C255.945 13.8 255.78 13.575 255.45 13.425C255.12 13.245 254.49 13.14 253.56 13.11V12.075H262.83V13.11C261.93 13.17 261.105 13.395 260.355 13.785C259.605 14.145 258.795 14.715 257.925 15.495L250.23 22.335C249.69 22.755 249.645 23.295 250.095 23.955L259.455 37.365C260.205 38.415 260.85 39.21 261.39 39.75C261.93 40.26 262.455 40.59 262.965 40.74C263.475 40.89 264.06 40.965 264.72 40.965V42C263.91 42.18 263.1 42.27 262.29 42.27C260.55 42.27 259.2 41.955 258.24 41.325C257.28 40.665 256.425 39.795 255.675 38.715L247.71 27.015C247.38 26.505 247.095 26.175 246.855 26.025C246.615 25.845 246.375 25.755 246.135 25.755C245.895 25.755 245.685 25.845 245.505 26.025C245.325 26.175 245.235 26.52 245.235 27.06V37.5C245.235 38.52 245.34 39.27 245.55 39.75C245.76 40.23 246.135 40.545 246.675 40.695C247.215 40.845 247.995 40.935 249.015 40.965V42H238.035V40.965C238.995 40.935 239.73 40.845 240.24 40.695C240.78 40.545 241.14 40.23 241.32 39.75C241.53 39.27 241.635 38.52 241.635 37.5V27.06C241.635 26.52 241.545 26.175 241.365 26.025C241.185 25.845 240.975 25.755 240.735 25.755C240.525 25.755 240.285 25.845 240.015 26.025C239.775 26.175 239.49 26.505 239.16 27.015L231.195 38.715C230.445 39.795 229.59 40.665 228.63 41.325C227.67 41.955 226.32 42.27 224.58 42.27ZM268.279 42V40.965C269.089 40.935 269.719 40.845 270.169 40.695C270.649 40.545 270.979 40.23 271.159 39.75C271.339 39.27 271.429 38.52 271.429 37.5V16.575C271.429 15.525 271.309 14.775 271.069 14.325C270.859 13.845 270.454 13.53 269.854 13.38C269.254 13.23 268.354 13.14 267.154 13.11V12.075H278.404V13.11C277.594 13.14 276.964 13.23 276.514 13.38C276.064 13.53 275.734 13.845 275.524 14.325C275.344 14.775 275.254 15.525 275.254 16.575V37.5C275.254 38.52 275.359 39.27 275.569 39.75C275.809 40.23 276.229 40.545 276.829 40.695C277.459 40.845 278.359 40.935 279.529 40.965V42H268.279ZM284.749 42V40.965C285.559 40.935 286.189 40.845 286.639 40.695C287.119 40.545 287.449 40.23 287.629 39.75C287.809 39.27 287.899 38.52 287.899 37.5V16.575C287.899 15.525 287.779 14.775 287.539 14.325C287.329 13.845 286.924 13.53 286.324 13.38C285.724 13.23 284.824 13.14 283.624 13.11V12.075H294.874V13.11C294.064 13.14 293.434 13.23 292.984 13.38C292.534 13.53 292.204 13.845 291.994 14.325C291.814 14.775 291.724 15.525 291.724 16.575V24.45C291.964 24.27 292.249 24.15 292.579 24.09C292.939 24.03 293.359 24 293.839 24H305.719C306.529 24 307.099 23.865 307.429 23.595C307.759 23.325 307.924 22.785 307.924 21.975V16.575C307.924 15.525 307.804 14.775 307.564 14.325C307.354 13.845 306.949 13.53 306.349 13.38C305.749 13.23 304.849 13.14 303.649 13.11V12.075H314.899V13.11C314.089 13.14 313.459 13.23 313.009 13.38C312.559 13.53 312.229 13.845 312.019 14.325C311.839 14.775 311.749 15.525 311.749 16.575V37.5C311.749 38.52 311.854 39.27 312.064 39.75C312.274 40.23 312.679 40.545 313.279 40.695C313.909 40.845 314.809 40.935 315.979 40.965V42H304.774V40.965C305.584 40.935 306.214 40.845 306.664 40.695C307.144 40.545 307.474 40.23 307.654 39.75C307.834 39.27 307.924 38.52 307.924 37.5V25.125C307.684 25.335 307.384 25.47 307.024 25.53C306.664 25.59 306.259 25.62 305.809 25.62H293.929C293.119 25.62 292.549 25.755 292.219 26.025C291.889 26.295 291.724 26.82 291.724 27.6V37.5C291.724 38.52 291.829 39.27 292.039 39.75C292.279 40.23 292.699 40.545 293.299 40.695C293.899 40.845 294.784 40.935 295.954 40.965V42H284.749ZM335.589 11.4C337.629 11.4 339.549 11.76 341.349 12.48C343.149 13.2 344.754 14.25 346.164 15.63C347.574 16.98 348.669 18.615 349.449 20.535C350.259 22.455 350.664 24.6 350.664 26.97C350.664 29.34 350.259 31.485 349.449 33.405C348.669 35.325 347.574 36.975 346.164 38.355C344.784 39.735 343.179 40.8 341.349 41.55C339.519 42.3 337.584 42.675 335.544 42.675C333.534 42.675 331.614 42.315 329.784 41.595C327.984 40.875 326.379 39.84 324.969 38.49C323.589 37.11 322.494 35.46 321.684 33.54C320.904 31.62 320.514 29.475 320.514 27.105C320.514 24.735 320.904 22.59 321.684 20.67C322.494 18.75 323.589 17.1 324.969 15.72C326.379 14.34 327.984 13.275 329.784 12.525C331.614 11.775 333.549 11.4 335.589 11.4ZM336.219 40.875C338.019 40.875 339.669 40.38 341.169 39.39C342.699 38.4 343.929 36.945 344.859 35.025C345.789 33.075 346.254 30.675 346.254 27.825C346.254 24.705 345.714 22.065 344.634 19.905C343.554 17.715 342.159 16.05 340.449 14.91C338.739 13.77 336.909 13.2 334.959 13.2C333.159 13.2 331.494 13.695 329.964 14.685C328.434 15.675 327.204 17.145 326.274 19.095C325.344 21.015 324.879 23.4 324.879 26.25C324.879 29.37 325.419 32.025 326.499 34.215C327.579 36.375 328.989 38.025 330.729 39.165C332.469 40.305 334.299 40.875 336.219 40.875ZM364.907 29.625C363.047 29.625 361.562 29.295 360.452 28.635C359.342 27.945 358.547 27.045 358.067 25.935C357.617 24.825 357.392 23.61 357.392 22.29V16.575C357.392 15.525 357.287 14.775 357.077 14.325C356.897 13.845 356.567 13.53 356.087 13.38C355.607 13.23 354.917 13.14 354.017 13.11V12.075H364.367V13.11C363.557 13.14 362.927 13.23 362.477 13.38C362.027 13.53 361.697 13.845 361.487 14.325C361.307 14.775 361.217 15.525 361.217 16.575V21.84C361.217 22.83 361.367 23.775 361.667 24.675C361.997 25.545 362.537 26.25 363.287 26.79C364.037 27.33 365.042 27.6 366.302 27.6C367.442 27.6 368.687 27.465 370.037 27.195C371.417 26.925 372.692 26.505 373.862 25.935V16.575C373.862 15.525 373.742 14.775 373.502 14.325C373.292 13.845 372.887 13.53 372.287 13.38C371.687 13.23 370.787 13.14 369.587 13.11V12.075H380.837V13.11C380.027 13.14 379.397 13.23 378.947 13.38C378.497 13.53 378.167 13.845 377.957 14.325C377.777 14.775 377.687 15.525 377.687 16.575V37.5C377.687 38.52 377.792 39.27 378.002 39.75C378.242 40.23 378.662 40.545 379.262 40.695C379.892 40.845 380.792 40.935 381.962 40.965V42H370.712V40.965C371.522 40.935 372.152 40.845 372.602 40.695C373.082 40.545 373.412 40.23 373.592 39.75C373.772 39.27 373.862 38.52 373.862 37.5V27.6C372.782 28.08 371.537 28.545 370.127 28.995C368.747 29.415 367.007 29.625 364.907 29.625ZM387.625 42V40.965C388.435 40.935 389.065 40.845 389.515 40.695C389.995 40.545 390.325 40.23 390.505 39.75C390.685 39.27 390.775 38.52 390.775 37.5V16.575C390.775 15.525 390.655 14.775 390.415 14.325C390.205 13.845 389.8 13.53 389.2 13.38C388.6 13.23 387.7 13.14 386.5 13.11V12.075H397.75V13.11C396.94 13.14 396.31 13.23 395.86 13.38C395.41 13.53 395.08 13.845 394.87 14.325C394.69 14.775 394.6 15.525 394.6 16.575V37.23L411.7 12.075H417.775V13.11C416.965 13.14 416.335 13.23 415.885 13.38C415.435 13.53 415.105 13.845 414.895 14.325C414.715 14.775 414.625 15.525 414.625 16.575V37.5C414.625 38.52 414.73 39.27 414.94 39.75C415.15 40.23 415.555 40.545 416.155 40.695C416.785 40.845 417.685 40.935 418.855 40.965V42H407.65V40.965C408.46 40.935 409.09 40.845 409.54 40.695C410.02 40.545 410.35 40.23 410.53 39.75C410.71 39.27 410.8 38.52 410.8 37.5V16.89L393.7 42H387.625ZM420.69 42V40.965C421.65 40.905 422.46 40.62 423.12 40.11C423.81 39.57 424.485 38.7 425.145 37.5L430.815 27.33C431.055 26.88 431.19 26.49 431.22 26.16C431.25 25.8 431.145 25.38 430.905 24.9L426.36 16.575C425.82 15.555 425.34 14.805 424.92 14.325C424.5 13.845 424.05 13.53 423.57 13.38C423.09 13.23 422.475 13.14 421.725 13.11V12.075H432.21V13.11C430.95 13.17 430.155 13.395 429.825 13.785C429.525 14.175 429.78 15.105 430.59 16.575L434.325 23.37H434.415L438.24 16.575C438.9 15.405 439.11 14.55 438.87 14.01C438.66 13.47 437.895 13.17 436.575 13.11V12.075H444.765V13.11C443.865 13.17 443.1 13.455 442.47 13.965C441.87 14.475 441.21 15.345 440.49 16.575L436.305 23.775C435.795 24.615 435.765 25.47 436.215 26.34L442.38 37.5C442.98 38.55 443.475 39.315 443.865 39.795C444.255 40.245 444.66 40.545 445.08 40.695C445.5 40.815 446.01 40.905 446.61 40.965V42H436.395V40.965C437.295 40.905 437.955 40.8 438.375 40.65C438.825 40.5 439.035 40.185 439.005 39.705C438.975 39.225 438.675 38.49 438.105 37.5L432.795 27.825H432.705L427.44 37.5C426.78 38.7 426.66 39.57 427.08 40.11C427.5 40.62 428.52 40.905 430.14 40.965V42H420.69ZM48.05 91.5C48.05 92.52 48.155 93.27 48.365 93.75C48.605 94.23 49.025 94.545 49.625 94.695C50.255 94.845 51.155 94.935 52.325 94.965V96H10.925V94.965C11.735 94.935 12.365 94.845 12.815 94.695C13.295 94.545 13.625 94.23 13.805 93.75C13.985 93.27 14.075 92.52 14.075 91.5V70.575C14.075 69.525 13.97 68.775 13.76 68.325C13.55 67.845 13.13 67.53 12.5 67.38C11.9 67.23 11.015 67.14 9.845 67.11V66.075H21.05V67.11C20.24 67.14 19.61 67.23 19.16 67.38C18.71 67.53 18.38 67.845 18.17 68.325C17.99 68.775 17.9 69.525 17.9 70.575V91.5C17.9 92.76 18.125 93.555 18.575 93.885C19.055 94.215 19.955 94.38 21.275 94.38H26.9C27.68 94.38 28.25 94.215 28.61 93.885C28.97 93.555 29.15 92.76 29.15 91.5V70.575C29.15 69.525 29.045 68.775 28.835 68.325C28.655 67.845 28.325 67.53 27.845 67.38C27.365 67.23 26.69 67.14 25.82 67.11V66.075H36.125V67.11C35.315 67.14 34.685 67.23 34.235 67.38C33.785 67.53 33.455 67.845 33.245 68.325C33.065 68.775 32.975 69.525 32.975 70.575V91.5C32.975 92.34 33.08 92.97 33.29 93.39C33.53 93.78 33.95 94.05 34.55 94.2C35.18 94.32 36.08 94.38 37.25 94.38H41.975C42.755 94.38 43.325 94.215 43.685 93.885C44.045 93.555 44.225 92.76 44.225 91.5V70.575C44.225 69.525 44.12 68.775 43.91 68.325C43.73 67.845 43.4 67.53 42.92 67.38C42.44 67.23 41.765 67.14 40.895 67.11V66.075H51.2V67.11C50.39 67.14 49.76 67.23 49.31 67.38C48.86 67.53 48.53 67.845 48.32 68.325C48.14 68.775 48.05 69.525 48.05 70.575V91.5ZM82.5365 96.27C80.7965 96.27 79.4615 95.94 78.5315 95.28C77.6015 94.59 76.7315 93.735 75.9215 92.715L66.6065 81.015C66.2165 80.535 65.9165 80.205 65.7065 80.025C65.4965 79.845 65.2715 79.755 65.0315 79.755C64.7915 79.755 64.5815 79.845 64.4015 80.025C64.2215 80.175 64.1315 80.52 64.1315 81.06V91.5C64.1315 92.52 64.2365 93.27 64.4465 93.75C64.6865 94.23 65.1065 94.545 65.7065 94.695C66.3065 94.845 67.1915 94.935 68.3615 94.965V96H57.1565V94.965C57.9665 94.935 58.5965 94.845 59.0465 94.695C59.5265 94.545 59.8565 94.23 60.0365 93.75C60.2165 93.27 60.3065 92.52 60.3065 91.5V70.575C60.3065 69.525 60.1865 68.775 59.9465 68.325C59.7365 67.845 59.3315 67.53 58.7315 67.38C58.1315 67.23 57.2315 67.14 56.0315 67.11V66.075H67.2815V67.11C66.4715 67.14 65.8415 67.23 65.3915 67.38C64.9415 67.53 64.6115 67.845 64.4015 68.325C64.2215 68.775 64.1315 69.525 64.1315 70.575V78.09H64.2215L73.8515 70.26C74.5715 69.66 75.0365 69.21 75.2465 68.91C75.4565 68.61 75.5615 68.34 75.5615 68.1C75.5615 67.8 75.3965 67.575 75.0665 67.425C74.7365 67.245 74.1065 67.14 73.1765 67.11V66.075H82.6265V67.11C81.7265 67.17 80.9165 67.395 80.1965 67.785C79.4765 68.175 78.6515 68.745 77.7215 69.495L69.1715 76.47C68.6915 76.83 68.6915 77.325 69.1715 77.955L79.7015 91.365C80.5115 92.385 81.1715 93.15 81.6815 93.66C82.2215 94.17 82.7315 94.515 83.2115 94.695C83.7215 94.875 84.3065 94.965 84.9665 94.965V96C84.1565 96.18 83.3465 96.27 82.5365 96.27ZM88.543 96V94.965C89.353 94.935 89.983 94.845 90.433 94.695C90.913 94.545 91.243 94.23 91.423 93.75C91.603 93.27 91.693 92.52 91.693 91.5V70.575C91.693 69.525 91.573 68.775 91.333 68.325C91.123 67.845 90.718 67.53 90.118 67.38C89.518 67.23 88.618 67.14 87.418 67.11V66.075H98.668V67.11C97.858 67.14 97.228 67.23 96.778 67.38C96.328 67.53 95.998 67.845 95.788 68.325C95.608 68.775 95.518 69.525 95.518 70.575V91.5C95.518 92.52 95.623 93.27 95.833 93.75C96.073 94.23 96.493 94.545 97.093 94.695C97.723 94.845 98.623 94.935 99.793 94.965V96H88.543ZM105.013 96V94.965C105.823 94.935 106.453 94.845 106.903 94.695C107.383 94.545 107.713 94.23 107.893 93.75C108.073 93.27 108.163 92.52 108.163 91.5V70.575C108.163 69.525 108.043 68.775 107.803 68.325C107.593 67.845 107.188 67.53 106.588 67.38C105.988 67.23 105.088 67.14 103.888 67.11V66.075H108.163C110.203 66.075 111.853 66.045 113.113 65.985C114.403 65.895 115.438 65.85 116.218 65.85C119.338 65.85 121.843 66.465 123.733 67.695C125.623 68.895 126.568 70.62 126.568 72.87C126.568 73.95 126.313 75.015 125.803 76.065C125.323 77.115 124.543 78.06 123.463 78.9C122.383 79.71 120.973 80.325 119.233 80.745C117.493 81.135 115.378 81.21 112.888 80.97V79.62C115.288 79.83 117.163 79.65 118.513 79.08C119.893 78.48 120.868 77.655 121.438 76.605C122.008 75.525 122.293 74.37 122.293 73.14C122.293 71.61 121.948 70.44 121.258 69.63C120.598 68.79 119.713 68.22 118.603 67.92C117.523 67.62 116.353 67.47 115.093 67.47C114.073 67.47 113.293 67.65 112.753 68.01C112.243 68.37 111.988 69.225 111.988 70.575V91.5C111.988 92.52 112.093 93.27 112.303 93.75C112.543 94.23 112.993 94.545 113.653 94.695C114.343 94.845 115.348 94.935 116.668 94.965V96H105.013ZM129.428 96.27C128.618 96.27 127.808 96.18 126.998 96V94.965C127.688 94.965 128.288 94.89 128.798 94.74C129.308 94.59 129.833 94.26 130.373 93.75C130.913 93.24 131.543 92.445 132.263 91.365L139.913 79.71C137.783 79.29 136.028 78.525 134.648 77.415C133.298 76.275 132.623 74.775 132.623 72.915C132.623 71.625 132.968 70.455 133.658 69.405C134.378 68.325 135.473 67.47 136.943 66.84C138.413 66.18 140.288 65.85 142.568 65.85C143.438 65.85 144.398 65.895 145.448 65.985C146.528 66.045 147.743 66.075 149.093 66.075H153.953V67.11C153.143 67.14 152.513 67.23 152.063 67.38C151.613 67.53 151.283 67.845 151.073 68.325C150.893 68.775 150.803 69.525 150.803 70.575V91.5C150.803 92.52 150.908 93.27 151.118 93.75C151.328 94.23 151.733 94.545 152.333 94.695C152.963 94.845 153.863 94.935 155.033 94.965V96H143.828V94.965C144.638 94.935 145.268 94.845 145.718 94.695C146.198 94.545 146.528 94.23 146.708 93.75C146.888 93.27 146.978 92.52 146.978 91.5V70.575C146.978 69.195 146.708 68.34 146.168 68.01C145.658 67.65 144.863 67.47 143.783 67.47C142.643 67.47 141.533 67.605 140.453 67.875C139.403 68.145 138.548 68.67 137.888 69.45C137.228 70.2 136.898 71.31 136.898 72.78C136.898 74.94 137.708 76.545 139.328 77.595C140.948 78.645 143.198 79.05 146.078 78.81V80.16C145.208 80.16 144.563 80.25 144.143 80.43C143.753 80.58 143.393 80.91 143.063 81.42L135.818 92.715C135.128 93.825 134.318 94.695 133.388 95.325C132.488 95.955 131.168 96.27 129.428 96.27ZM159.857 96V94.965C160.667 94.935 161.297 94.845 161.747 94.695C162.227 94.545 162.557 94.23 162.737 93.75C162.917 93.27 163.007 92.52 163.007 91.5V70.575C163.007 69.525 162.887 68.775 162.647 68.325C162.437 67.845 162.032 67.53 161.432 67.38C160.832 67.23 159.932 67.14 158.732 67.11V66.075H169.982V67.11C169.172 67.14 168.542 67.23 168.092 67.38C167.642 67.53 167.312 67.845 167.102 68.325C166.922 68.775 166.832 69.525 166.832 70.575V78.45C167.072 78.27 167.357 78.15 167.687 78.09C168.047 78.03 168.467 78 168.947 78H180.827C181.637 78 182.207 77.865 182.537 77.595C182.867 77.325 183.032 76.785 183.032 75.975V70.575C183.032 69.525 182.912 68.775 182.672 68.325C182.462 67.845 182.057 67.53 181.457 67.38C180.857 67.23 179.957 67.14 178.757 67.11V66.075H190.007V67.11C189.197 67.14 188.567 67.23 188.117 67.38C187.667 67.53 187.337 67.845 187.127 68.325C186.947 68.775 186.857 69.525 186.857 70.575V91.5C186.857 92.52 186.962 93.27 187.172 93.75C187.382 94.23 187.787 94.545 188.387 94.695C189.017 94.845 189.917 94.935 191.087 94.965V96H179.882V94.965C180.692 94.935 181.322 94.845 181.772 94.695C182.252 94.545 182.582 94.23 182.762 93.75C182.942 93.27 183.032 92.52 183.032 91.5V79.125C182.792 79.335 182.492 79.47 182.132 79.53C181.772 79.59 181.367 79.62 180.917 79.62H169.037C168.227 79.62 167.657 79.755 167.327 80.025C166.997 80.295 166.832 80.82 166.832 81.6V91.5C166.832 92.52 166.937 93.27 167.147 93.75C167.387 94.23 167.807 94.545 168.407 94.695C169.007 94.845 169.892 94.935 171.062 94.965V96H159.857ZM195.892 96V94.965C196.702 94.935 197.332 94.845 197.782 94.695C198.262 94.545 198.592 94.23 198.772 93.75C198.952 93.27 199.042 92.52 199.042 91.5V70.575C199.042 69.525 198.922 68.775 198.682 68.325C198.472 67.845 198.067 67.53 197.467 67.38C196.867 67.23 195.967 67.14 194.767 67.11V66.075H206.017V67.11C205.207 67.14 204.577 67.23 204.127 67.38C203.677 67.53 203.347 67.845 203.137 68.325C202.957 68.775 202.867 69.525 202.867 70.575V91.23L219.967 66.075H226.042V67.11C225.232 67.14 224.602 67.23 224.152 67.38C223.702 67.53 223.372 67.845 223.162 68.325C222.982 68.775 222.892 69.525 222.892 70.575V91.5C222.892 92.52 222.997 93.27 223.207 93.75C223.417 94.23 223.822 94.545 224.422 94.695C225.052 94.845 225.952 94.935 227.122 94.965V96H215.917V94.965C216.727 94.935 217.357 94.845 217.807 94.695C218.287 94.545 218.617 94.23 218.797 93.75C218.977 93.27 219.067 92.52 219.067 91.5V70.89L201.967 96H195.892ZM228.957 96V94.965C229.917 94.905 230.727 94.62 231.387 94.11C232.077 93.57 232.752 92.7 233.412 91.5L239.082 81.33C239.322 80.88 239.457 80.49 239.487 80.16C239.517 79.8 239.412 79.38 239.172 78.9L234.627 70.575C234.087 69.555 233.607 68.805 233.187 68.325C232.767 67.845 232.317 67.53 231.837 67.38C231.357 67.23 230.742 67.14 229.992 67.11V66.075H240.477V67.11C239.217 67.17 238.422 67.395 238.092 67.785C237.792 68.175 238.047 69.105 238.857 70.575L242.592 77.37H242.682L246.507 70.575C247.167 69.405 247.377 68.55 247.137 68.01C246.927 67.47 246.162 67.17 244.842 67.11V66.075H253.032V67.11C252.132 67.17 251.367 67.455 250.737 67.965C250.137 68.475 249.477 69.345 248.757 70.575L244.572 77.775C244.062 78.615 244.032 79.47 244.482 80.34L250.647 91.5C251.247 92.55 251.742 93.315 252.132 93.795C252.522 94.245 252.927 94.545 253.347 94.695C253.767 94.815 254.277 94.905 254.877 94.965V96H244.662V94.965C245.562 94.905 246.222 94.8 246.642 94.65C247.092 94.5 247.302 94.185 247.272 93.705C247.242 93.225 246.942 92.49 246.372 91.5L241.062 81.825H240.972L235.707 91.5C235.047 92.7 234.927 93.57 235.347 94.11C235.767 94.62 236.787 94.905 238.407 94.965V96H228.957ZM296.688 91.5C296.688 92.52 296.793 93.27 297.003 93.75C297.213 94.23 297.618 94.545 298.218 94.695C298.848 94.845 299.748 94.935 300.918 94.965V96H289.713V94.965C290.523 94.935 291.153 94.845 291.603 94.695C292.083 94.545 292.413 94.23 292.593 93.75C292.773 93.27 292.863 92.52 292.863 91.5V70.575C292.863 69.315 292.623 68.52 292.143 68.19C291.693 67.86 290.808 67.695 289.488 67.695H280.263C279.513 67.695 278.943 67.86 278.553 68.19C278.193 68.52 278.013 69.315 278.013 70.575V91.5C278.013 92.52 278.118 93.27 278.328 93.75C278.568 94.23 278.988 94.545 279.588 94.695C280.188 94.845 281.073 94.935 282.243 94.965V96H271.038V94.965C271.848 94.935 272.478 94.845 272.928 94.695C273.408 94.545 273.738 94.23 273.918 93.75C274.098 93.27 274.188 92.52 274.188 91.5V70.575C274.188 69.525 274.068 68.775 273.828 68.325C273.618 67.845 273.213 67.53 272.613 67.38C272.013 67.23 271.113 67.14 269.913 67.11V66.075H299.838V67.11C299.028 67.14 298.398 67.23 297.948 67.38C297.498 67.53 297.168 67.845 296.958 68.325C296.778 68.775 296.688 69.525 296.688 70.575V91.5ZM320.56 65.4C322.6 65.4 324.52 65.76 326.32 66.48C328.12 67.2 329.725 68.25 331.135 69.63C332.545 70.98 333.64 72.615 334.42 74.535C335.23 76.455 335.635 78.6 335.635 80.97C335.635 83.34 335.23 85.485 334.42 87.405C333.64 89.325 332.545 90.975 331.135 92.355C329.755 93.735 328.15 94.8 326.32 95.55C324.49 96.3 322.555 96.675 320.515 96.675C318.505 96.675 316.585 96.315 314.755 95.595C312.955 94.875 311.35 93.84 309.94 92.49C308.56 91.11 307.465 89.46 306.655 87.54C305.875 85.62 305.485 83.475 305.485 81.105C305.485 78.735 305.875 76.59 306.655 74.67C307.465 72.75 308.56 71.1 309.94 69.72C311.35 68.34 312.955 67.275 314.755 66.525C316.585 65.775 318.52 65.4 320.56 65.4ZM321.19 94.875C322.99 94.875 324.64 94.38 326.14 93.39C327.67 92.4 328.9 90.945 329.83 89.025C330.76 87.075 331.225 84.675 331.225 81.825C331.225 78.705 330.685 76.065 329.605 73.905C328.525 71.715 327.13 70.05 325.42 68.91C323.71 67.77 321.88 67.2 319.93 67.2C318.13 67.2 316.465 67.695 314.935 68.685C313.405 69.675 312.175 71.145 311.245 73.095C310.315 75.015 309.85 77.4 309.85 80.25C309.85 83.37 310.39 86.025 311.47 88.215C312.55 90.375 313.96 92.025 315.7 93.165C317.44 94.305 319.27 94.875 321.19 94.875ZM339.135 96.27C338.325 96.27 337.515 96.18 336.705 96V94.965C337.395 94.965 337.995 94.89 338.505 94.74C339.015 94.59 339.54 94.26 340.08 93.75C340.62 93.24 341.25 92.445 341.97 91.365L349.62 79.71C347.49 79.29 345.735 78.525 344.355 77.415C343.005 76.275 342.33 74.775 342.33 72.915C342.33 71.625 342.675 70.455 343.365 69.405C344.085 68.325 345.18 67.47 346.65 66.84C348.12 66.18 349.995 65.85 352.275 65.85C353.145 65.85 354.105 65.895 355.155 65.985C356.235 66.045 357.45 66.075 358.8 66.075H363.66V67.11C362.85 67.14 362.22 67.23 361.77 67.38C361.32 67.53 360.99 67.845 360.78 68.325C360.6 68.775 360.51 69.525 360.51 70.575V91.5C360.51 92.52 360.615 93.27 360.825 93.75C361.035 94.23 361.44 94.545 362.04 94.695C362.67 94.845 363.57 94.935 364.74 94.965V96H353.535V94.965C354.345 94.935 354.975 94.845 355.425 94.695C355.905 94.545 356.235 94.23 356.415 93.75C356.595 93.27 356.685 92.52 356.685 91.5V70.575C356.685 69.195 356.415 68.34 355.875 68.01C355.365 67.65 354.57 67.47 353.49 67.47C352.35 67.47 351.24 67.605 350.16 67.875C349.11 68.145 348.255 68.67 347.595 69.45C346.935 70.2 346.605 71.31 346.605 72.78C346.605 74.94 347.415 76.545 349.035 77.595C350.655 78.645 352.905 79.05 355.785 78.81V80.16C354.915 80.16 354.27 80.25 353.85 80.43C353.46 80.58 353.1 80.91 352.77 81.42L345.525 92.715C344.835 93.825 344.025 94.695 343.095 95.325C342.195 95.955 340.875 96.27 339.135 96.27ZM384.864 96.675C382.674 96.675 380.634 96.315 378.744 95.595C376.854 94.845 375.189 93.795 373.749 92.445C372.339 91.065 371.244 89.43 370.464 87.54C369.684 85.65 369.294 83.565 369.294 81.285C369.294 78.825 369.744 76.62 370.644 74.67C371.544 72.69 372.774 71.01 374.334 69.63C375.894 68.25 377.694 67.2 379.734 66.48C381.774 65.76 383.934 65.4 386.214 65.4C387.324 65.4 388.449 65.475 389.589 65.625C390.759 65.775 391.839 65.985 392.829 66.255C393.849 66.495 394.689 66.765 395.349 67.065V74.175H394.314C394.194 72.405 393.699 71.025 392.829 70.035C391.959 69.015 390.879 68.295 389.589 67.875C388.329 67.425 387.009 67.2 385.629 67.2C383.499 67.2 381.519 67.68 379.689 68.64C377.859 69.6 376.389 71.07 375.279 73.05C374.199 75 373.659 77.505 373.659 80.565C373.659 83.475 374.169 86.01 375.189 88.17C376.209 90.3 377.559 91.95 379.239 93.12C380.949 94.29 382.839 94.875 384.909 94.875C386.799 94.875 388.464 94.44 389.904 93.57C391.374 92.67 392.574 91.545 393.504 90.195C394.434 88.845 395.049 87.48 395.349 86.1H396.384L396.114 91.365C394.974 92.775 393.504 94.02 391.704 95.1C389.904 96.15 387.624 96.675 384.864 96.675ZM401.653 96V94.965C402.463 94.935 403.093 94.845 403.543 94.695C404.023 94.545 404.353 94.23 404.533 93.75C404.713 93.27 404.803 92.52 404.803 91.5V70.575C404.803 69.525 404.683 68.775 404.443 68.325C404.233 67.845 403.828 67.53 403.228 67.38C402.628 67.23 401.728 67.14 400.528 67.11V66.075H411.778V67.11C410.968 67.14 410.338 67.23 409.888 67.38C409.438 67.53 409.108 67.845 408.898 68.325C408.718 68.775 408.628 69.525 408.628 70.575V91.5C408.628 92.52 408.733 93.27 408.943 93.75C409.183 94.23 409.603 94.545 410.203 94.695C410.833 94.845 411.733 94.935 412.903 94.965V96H401.653ZM418.123 96V94.965C418.933 94.935 419.563 94.845 420.013 94.695C420.493 94.545 420.823 94.23 421.003 93.75C421.183 93.27 421.273 92.52 421.273 91.5V70.575C421.273 69.525 421.153 68.775 420.913 68.325C420.703 67.845 420.298 67.53 419.698 67.38C419.098 67.23 418.198 67.14 416.998 67.11V66.075H421.273C422.743 66.075 423.943 66.06 424.873 66.03C425.803 65.97 426.658 65.925 427.438 65.895C428.248 65.865 429.178 65.85 430.228 65.85C433.408 65.85 435.733 66.405 437.203 67.515C438.673 68.595 439.408 70.02 439.408 71.79C439.408 73.62 438.808 75.075 437.608 76.155C436.408 77.235 434.938 78.09 433.198 78.72V78.81C435.028 78.9 436.648 79.26 438.058 79.89C439.498 80.49 440.638 81.345 441.478 82.455C442.318 83.565 442.738 84.915 442.738 86.505C442.738 88.065 442.318 89.58 441.478 91.05C440.668 92.49 439.378 93.675 437.608 94.605C435.868 95.535 433.588 96 430.768 96H418.123ZM425.098 79.35C425.488 79.08 425.848 78.915 426.178 78.855C426.538 78.765 426.958 78.705 427.438 78.675C428.338 78.585 429.238 78.45 430.138 78.27C431.068 78.06 431.908 77.73 432.658 77.28C433.438 76.83 434.068 76.215 434.548 75.435C435.028 74.625 435.268 73.605 435.268 72.375C435.268 70.965 434.938 69.915 434.278 69.225C433.618 68.535 432.793 68.07 431.803 67.83C430.813 67.59 429.793 67.47 428.743 67.47C427.453 67.47 426.523 67.635 425.953 67.965C425.383 68.295 425.098 69.165 425.098 70.575V79.35ZM430.408 94.38C432.538 94.38 434.188 93.99 435.358 93.21C436.558 92.43 437.398 91.47 437.878 90.33C438.358 89.16 438.598 88.005 438.598 86.865C438.598 85.215 438.178 83.91 437.338 82.95C436.528 81.96 435.418 81.255 434.008 80.835C432.628 80.385 431.068 80.16 429.328 80.16C427.858 80.16 426.778 80.355 426.088 80.745C425.428 81.105 425.098 81.795 425.098 82.815V91.5C425.098 92.37 425.248 93.015 425.548 93.435C425.848 93.825 426.373 94.08 427.123 94.2C427.903 94.32 428.998 94.38 430.408 94.38Z" fill="black"/>
<path d="M969.707 54.7071C970.098 54.3166 970.098 53.6834 969.707 53.2929L963.343 46.9289C962.953 46.5384 962.319 46.5384 961.929 46.9289C961.538 47.3195 961.538 47.9526 961.929 48.3431L967.586 54L961.929 59.6569C961.538 60.0474 961.538 60.6805 961.929 61.0711C962.319 61.4616 962.953 61.4616 963.343 61.0711L969.707 54.7071ZM8 55H969V53H8V55Z" fill="black"/>
</svg>
